<mxfile host="app.diagrams.net" agent="Mozilla/5.0 (Windows NT 10.0; Win64; x64) AppleWebKit/537.36 (KHTML, like Gecko) Chrome/135.0.0.0 Safari/537.36" version="26.2.14" pages="3">
  <diagram name="IntialClass" id="9f46799a-70d6-7492-0946-bef42562c5a5">
    <mxGraphModel dx="1281" dy="574" grid="1" gridSize="10" guides="1" tooltips="1" connect="1" arrows="1" fold="1" page="1" pageScale="1" pageWidth="1100" pageHeight="850" background="none" math="0" shadow="0">
      <root>
        <mxCell id="0" />
        <mxCell id="1" parent="0" />
        <mxCell id="NtrmIHfhrDVlRuXKEvSe-1" value="User" style="swimlane;fontStyle=1;align=center;verticalAlign=top;childLayout=stackLayout;horizontal=1;startSize=26;horizontalStack=0;resizeParent=1;resizeParentMax=0;resizeLast=0;collapsible=1;marginBottom=0;whiteSpace=wrap;html=1;" parent="1" vertex="1" collapsed="1">
          <mxGeometry x="190" y="320" width="70" height="30" as="geometry">
            <mxRectangle x="190" y="220" width="160" height="34" as="alternateBounds" />
          </mxGeometry>
        </mxCell>
        <mxCell id="NtrmIHfhrDVlRuXKEvSe-3" value="" style="line;strokeWidth=1;fillColor=none;align=left;verticalAlign=middle;spacingTop=-1;spacingLeft=3;spacingRight=3;rotatable=0;labelPosition=right;points=[];portConstraint=eastwest;strokeColor=inherit;" parent="NtrmIHfhrDVlRuXKEvSe-1" vertex="1">
          <mxGeometry y="26" width="160" height="8" as="geometry" />
        </mxCell>
        <mxCell id="NtrmIHfhrDVlRuXKEvSe-5" value="Student" style="swimlane;fontStyle=1;align=center;verticalAlign=top;childLayout=stackLayout;horizontal=1;startSize=26;horizontalStack=0;resizeParent=1;resizeParentMax=0;resizeLast=0;collapsible=1;marginBottom=0;whiteSpace=wrap;html=1;" parent="1" vertex="1" collapsed="1">
          <mxGeometry x="801" y="320" width="80" height="30" as="geometry">
            <mxRectangle x="190" y="400" width="160" height="34" as="alternateBounds" />
          </mxGeometry>
        </mxCell>
        <mxCell id="NtrmIHfhrDVlRuXKEvSe-7" value="" style="line;strokeWidth=1;fillColor=none;align=left;verticalAlign=middle;spacingTop=-1;spacingLeft=3;spacingRight=3;rotatable=0;labelPosition=right;points=[];portConstraint=eastwest;strokeColor=inherit;" parent="NtrmIHfhrDVlRuXKEvSe-5" vertex="1">
          <mxGeometry y="26" width="160" height="8" as="geometry" />
        </mxCell>
        <mxCell id="NtrmIHfhrDVlRuXKEvSe-9" value="Faculty member" style="swimlane;fontStyle=1;align=center;verticalAlign=top;childLayout=stackLayout;horizontal=1;startSize=26;horizontalStack=0;resizeParent=1;resizeParentMax=0;resizeLast=0;collapsible=1;marginBottom=0;whiteSpace=wrap;html=1;" parent="1" vertex="1" collapsed="1">
          <mxGeometry x="170" y="440" width="130" height="30" as="geometry">
            <mxRectangle x="190" y="510" width="170" height="90" as="alternateBounds" />
          </mxGeometry>
        </mxCell>
        <mxCell id="NtrmIHfhrDVlRuXKEvSe-13" value="Course" style="swimlane;fontStyle=1;align=center;verticalAlign=top;childLayout=stackLayout;horizontal=1;startSize=26;horizontalStack=0;resizeParent=1;resizeParentMax=0;resizeLast=0;collapsible=1;marginBottom=0;whiteSpace=wrap;html=1;" parent="1" vertex="1" collapsed="1">
          <mxGeometry x="801" y="441" width="80" height="30" as="geometry">
            <mxRectangle x="450" y="380" width="160" height="34" as="alternateBounds" />
          </mxGeometry>
        </mxCell>
        <mxCell id="NtrmIHfhrDVlRuXKEvSe-15" value="" style="line;strokeWidth=1;fillColor=none;align=left;verticalAlign=middle;spacingTop=-1;spacingLeft=3;spacingRight=3;rotatable=0;labelPosition=right;points=[];portConstraint=eastwest;strokeColor=inherit;" parent="NtrmIHfhrDVlRuXKEvSe-13" vertex="1">
          <mxGeometry y="26" width="160" height="8" as="geometry" />
        </mxCell>
        <mxCell id="NtrmIHfhrDVlRuXKEvSe-86" value="1" style="endArrow=open;html=1;endSize=12;startArrow=diamondThin;startSize=14;startFill=1;edgeStyle=orthogonalEdgeStyle;align=left;verticalAlign=bottom;rounded=0;" parent="NtrmIHfhrDVlRuXKEvSe-13" edge="1">
          <mxGeometry x="-1" y="3" relative="1" as="geometry">
            <mxPoint x="69" y="20" as="sourcePoint" />
            <mxPoint x="229" y="20" as="targetPoint" />
          </mxGeometry>
        </mxCell>
        <mxCell id="NtrmIHfhrDVlRuXKEvSe-17" value="CourseRegistration" style="swimlane;fontStyle=1;align=center;verticalAlign=top;childLayout=stackLayout;horizontal=1;startSize=26;horizontalStack=0;resizeParent=1;resizeParentMax=0;resizeLast=0;collapsible=1;marginBottom=0;whiteSpace=wrap;html=1;" parent="1" vertex="1" collapsed="1">
          <mxGeometry x="910" y="392" width="140" height="30" as="geometry">
            <mxRectangle x="448" y="530" width="160" height="20" as="alternateBounds" />
          </mxGeometry>
        </mxCell>
        <mxCell id="NtrmIHfhrDVlRuXKEvSe-21" value="Schedule" style="swimlane;fontStyle=1;align=center;verticalAlign=top;childLayout=stackLayout;horizontal=1;startSize=26;horizontalStack=0;resizeParent=1;resizeParentMax=0;resizeLast=0;collapsible=1;marginBottom=0;whiteSpace=wrap;html=1;" parent="1" vertex="1" collapsed="1">
          <mxGeometry x="470" y="490" width="90" height="30" as="geometry">
            <mxRectangle x="680" y="220" width="160" height="34" as="alternateBounds" />
          </mxGeometry>
        </mxCell>
        <mxCell id="NtrmIHfhrDVlRuXKEvSe-23" value="" style="line;strokeWidth=1;fillColor=none;align=left;verticalAlign=middle;spacingTop=-1;spacingLeft=3;spacingRight=3;rotatable=0;labelPosition=right;points=[];portConstraint=eastwest;strokeColor=inherit;" parent="NtrmIHfhrDVlRuXKEvSe-21" vertex="1">
          <mxGeometry y="26" width="160" height="8" as="geometry" />
        </mxCell>
        <mxCell id="NtrmIHfhrDVlRuXKEvSe-25" value="CourseVideos" style="swimlane;fontStyle=1;align=center;verticalAlign=top;childLayout=stackLayout;horizontal=1;startSize=26;horizontalStack=0;resizeParent=1;resizeParentMax=0;resizeLast=0;collapsible=1;marginBottom=0;whiteSpace=wrap;html=1;" parent="1" vertex="1" collapsed="1">
          <mxGeometry x="880" y="580" width="120" height="30" as="geometry">
            <mxRectangle x="447" y="637" width="190" height="23" as="alternateBounds" />
          </mxGeometry>
        </mxCell>
        <mxCell id="NtrmIHfhrDVlRuXKEvSe-29" value="Exam" style="swimlane;fontStyle=1;align=center;verticalAlign=top;childLayout=stackLayout;horizontal=1;startSize=26;horizontalStack=0;resizeParent=1;resizeParentMax=0;resizeLast=0;collapsible=1;marginBottom=0;whiteSpace=wrap;html=1;" parent="1" vertex="1" collapsed="1">
          <mxGeometry x="490" y="580" width="70" height="30" as="geometry">
            <mxRectangle x="682" y="380" width="160" height="34" as="alternateBounds" />
          </mxGeometry>
        </mxCell>
        <mxCell id="NtrmIHfhrDVlRuXKEvSe-31" value="" style="line;strokeWidth=1;fillColor=none;align=left;verticalAlign=middle;spacingTop=-1;spacingLeft=3;spacingRight=3;rotatable=0;labelPosition=right;points=[];portConstraint=eastwest;strokeColor=inherit;" parent="NtrmIHfhrDVlRuXKEvSe-29" vertex="1">
          <mxGeometry y="26" width="160" height="8" as="geometry" />
        </mxCell>
        <mxCell id="NtrmIHfhrDVlRuXKEvSe-33" value="Questions" style="swimlane;fontStyle=1;align=center;verticalAlign=top;childLayout=stackLayout;horizontal=1;startSize=26;horizontalStack=0;resizeParent=1;resizeParentMax=0;resizeLast=0;collapsible=1;marginBottom=0;whiteSpace=wrap;html=1;" parent="1" vertex="1" collapsed="1">
          <mxGeometry x="760" y="580" width="90" height="30" as="geometry">
            <mxRectangle x="682" y="539" width="160" height="21" as="alternateBounds" />
          </mxGeometry>
        </mxCell>
        <mxCell id="NtrmIHfhrDVlRuXKEvSe-37" value="StudentAnswers" style="swimlane;fontStyle=1;align=center;verticalAlign=top;childLayout=stackLayout;horizontal=1;startSize=26;horizontalStack=0;resizeParent=1;resizeParentMax=0;resizeLast=0;collapsible=1;marginBottom=0;whiteSpace=wrap;html=1;" parent="1" vertex="1" collapsed="1">
          <mxGeometry x="590" y="640" width="130" height="30" as="geometry">
            <mxRectangle x="683" y="686" width="160" height="24" as="alternateBounds" />
          </mxGeometry>
        </mxCell>
        <mxCell id="NtrmIHfhrDVlRuXKEvSe-41" value="Notification" style="swimlane;fontStyle=1;align=center;verticalAlign=top;childLayout=stackLayout;horizontal=1;startSize=26;horizontalStack=0;resizeParent=1;resizeParentMax=0;resizeLast=0;collapsible=1;marginBottom=0;whiteSpace=wrap;html=1;" parent="1" vertex="1" collapsed="1">
          <mxGeometry x="30" y="320" width="100" height="30" as="geometry">
            <mxRectangle x="450" y="220" width="160" height="34" as="alternateBounds" />
          </mxGeometry>
        </mxCell>
        <mxCell id="NtrmIHfhrDVlRuXKEvSe-43" value="" style="line;strokeWidth=1;fillColor=none;align=left;verticalAlign=middle;spacingTop=-1;spacingLeft=3;spacingRight=3;rotatable=0;labelPosition=right;points=[];portConstraint=eastwest;strokeColor=inherit;" parent="NtrmIHfhrDVlRuXKEvSe-41" vertex="1">
          <mxGeometry y="26" width="160" height="8" as="geometry" />
        </mxCell>
        <mxCell id="NtrmIHfhrDVlRuXKEvSe-45" value="Evaluation" style="swimlane;fontStyle=1;align=center;verticalAlign=top;childLayout=stackLayout;horizontal=1;startSize=26;horizontalStack=0;resizeParent=1;resizeParentMax=0;resizeLast=0;collapsible=1;marginBottom=0;whiteSpace=wrap;html=1;" parent="1" vertex="1" collapsed="1">
          <mxGeometry x="320" y="230" width="100" height="30" as="geometry">
            <mxRectangle x="890" y="220" width="160" height="34" as="alternateBounds" />
          </mxGeometry>
        </mxCell>
        <mxCell id="NtrmIHfhrDVlRuXKEvSe-47" value="" style="line;strokeWidth=1;fillColor=none;align=left;verticalAlign=middle;spacingTop=-1;spacingLeft=3;spacingRight=3;rotatable=0;labelPosition=right;points=[];portConstraint=eastwest;strokeColor=inherit;" parent="NtrmIHfhrDVlRuXKEvSe-45" vertex="1">
          <mxGeometry y="26" width="160" height="8" as="geometry" />
        </mxCell>
        <mxCell id="NtrmIHfhrDVlRuXKEvSe-49" value="Questionnaire" style="swimlane;fontStyle=1;align=center;verticalAlign=top;childLayout=stackLayout;horizontal=1;startSize=0;horizontalStack=0;resizeParent=1;resizeParentMax=0;resizeLast=0;collapsible=1;marginBottom=0;whiteSpace=wrap;html=1;" parent="1" vertex="1" collapsed="1">
          <mxGeometry x="610" y="230" width="120" height="30" as="geometry">
            <mxRectangle x="890" y="394" width="160" height="34" as="alternateBounds" />
          </mxGeometry>
        </mxCell>
        <mxCell id="NtrmIHfhrDVlRuXKEvSe-51" value="" style="line;strokeWidth=1;fillColor=none;align=left;verticalAlign=middle;spacingTop=-1;spacingLeft=3;spacingRight=3;rotatable=0;labelPosition=right;points=[];portConstraint=eastwest;strokeColor=inherit;" parent="NtrmIHfhrDVlRuXKEvSe-49" vertex="1">
          <mxGeometry y="26" width="160" height="8" as="geometry" />
        </mxCell>
        <mxCell id="NtrmIHfhrDVlRuXKEvSe-53" value="EvalQuestion" style="swimlane;fontStyle=1;align=center;verticalAlign=top;childLayout=stackLayout;horizontal=1;startSize=26;horizontalStack=0;resizeParent=1;resizeParentMax=0;resizeLast=0;collapsible=1;marginBottom=0;whiteSpace=wrap;html=1;" parent="1" vertex="1" collapsed="1">
          <mxGeometry x="890" y="230" width="110" height="30" as="geometry">
            <mxRectangle x="890" y="539" width="160" height="34" as="alternateBounds" />
          </mxGeometry>
        </mxCell>
        <mxCell id="NtrmIHfhrDVlRuXKEvSe-55" value="" style="line;strokeWidth=1;fillColor=none;align=left;verticalAlign=middle;spacingTop=-1;spacingLeft=3;spacingRight=3;rotatable=0;labelPosition=right;points=[];portConstraint=eastwest;strokeColor=inherit;" parent="NtrmIHfhrDVlRuXKEvSe-53" vertex="1">
          <mxGeometry y="26" width="160" height="8" as="geometry" />
        </mxCell>
        <mxCell id="NtrmIHfhrDVlRuXKEvSe-57" value="QuestionResponse" style="swimlane;fontStyle=1;align=center;verticalAlign=top;childLayout=stackLayout;horizontal=1;startSize=26;horizontalStack=0;resizeParent=1;resizeParentMax=0;resizeLast=0;collapsible=1;marginBottom=0;whiteSpace=wrap;html=1;" parent="1" vertex="1" collapsed="1">
          <mxGeometry x="875" y="140" width="140" height="30" as="geometry">
            <mxRectangle x="890" y="686" width="160" height="24" as="alternateBounds" />
          </mxGeometry>
        </mxCell>
        <mxCell id="NtrmIHfhrDVlRuXKEvSe-79" value="" style="endArrow=none;html=1;edgeStyle=orthogonalEdgeStyle;rounded=0;exitX=0.5;exitY=1;exitDx=0;exitDy=0;entryX=0.5;entryY=0;entryDx=0;entryDy=0;" parent="1" edge="1">
          <mxGeometry relative="1" as="geometry">
            <mxPoint x="840" y="350" as="sourcePoint" />
            <mxPoint x="840" y="441" as="targetPoint" />
          </mxGeometry>
        </mxCell>
        <mxCell id="e3l5DcDd7w5r0exGrsxQ-14" value="" style="endArrow=block;dashed=1;endFill=0;endSize=12;html=1;rounded=0;entryX=0;entryY=0.25;entryDx=0;entryDy=0;" parent="1" target="NtrmIHfhrDVlRuXKEvSe-17" edge="1">
          <mxGeometry width="160" relative="1" as="geometry">
            <mxPoint x="840" y="400" as="sourcePoint" />
            <mxPoint x="970" y="400" as="targetPoint" />
          </mxGeometry>
        </mxCell>
        <mxCell id="bDkhIBPVNsRJTkhS41g2-4" value="Admin" style="swimlane;fontStyle=1;align=center;verticalAlign=top;childLayout=stackLayout;horizontal=1;startSize=26;horizontalStack=0;resizeParent=1;resizeParentMax=0;resizeLast=0;collapsible=1;marginBottom=0;whiteSpace=wrap;html=1;" parent="1" vertex="1" collapsed="1">
          <mxGeometry x="30" y="411" width="100" height="30" as="geometry">
            <mxRectangle y="370" width="160" height="86" as="alternateBounds" />
          </mxGeometry>
        </mxCell>
        <mxCell id="bDkhIBPVNsRJTkhS41g2-5" value="+ field: type" style="text;strokeColor=none;fillColor=none;align=left;verticalAlign=top;spacingLeft=4;spacingRight=4;overflow=hidden;rotatable=0;points=[[0,0.5],[1,0.5]];portConstraint=eastwest;whiteSpace=wrap;html=1;" parent="bDkhIBPVNsRJTkhS41g2-4" vertex="1">
          <mxGeometry y="26" width="160" height="26" as="geometry" />
        </mxCell>
        <mxCell id="bDkhIBPVNsRJTkhS41g2-6" value="" style="line;strokeWidth=1;fillColor=none;align=left;verticalAlign=middle;spacingTop=-1;spacingLeft=3;spacingRight=3;rotatable=0;labelPosition=right;points=[];portConstraint=eastwest;strokeColor=inherit;" parent="bDkhIBPVNsRJTkhS41g2-4" vertex="1">
          <mxGeometry y="52" width="160" height="8" as="geometry" />
        </mxCell>
        <mxCell id="bDkhIBPVNsRJTkhS41g2-7" value="+ method(type): type" style="text;strokeColor=none;fillColor=none;align=left;verticalAlign=top;spacingLeft=4;spacingRight=4;overflow=hidden;rotatable=0;points=[[0,0.5],[1,0.5]];portConstraint=eastwest;whiteSpace=wrap;html=1;" parent="bDkhIBPVNsRJTkhS41g2-4" vertex="1">
          <mxGeometry y="60" width="160" height="26" as="geometry" />
        </mxCell>
        <mxCell id="bDkhIBPVNsRJTkhS41g2-11" value="Database" style="swimlane;fontStyle=1;align=center;verticalAlign=top;childLayout=stackLayout;horizontal=1;startSize=26;horizontalStack=0;resizeParent=1;resizeParentMax=0;resizeLast=0;collapsible=1;marginBottom=0;whiteSpace=wrap;html=1;" parent="1" vertex="1" collapsed="1">
          <mxGeometry x="40" y="206" width="110" height="30" as="geometry">
            <mxRectangle x="40" y="206" width="160" height="86" as="alternateBounds" />
          </mxGeometry>
        </mxCell>
        <mxCell id="bDkhIBPVNsRJTkhS41g2-12" value="+ field: type" style="text;strokeColor=none;fillColor=none;align=left;verticalAlign=top;spacingLeft=4;spacingRight=4;overflow=hidden;rotatable=0;points=[[0,0.5],[1,0.5]];portConstraint=eastwest;whiteSpace=wrap;html=1;" parent="bDkhIBPVNsRJTkhS41g2-11" vertex="1">
          <mxGeometry y="26" width="160" height="26" as="geometry" />
        </mxCell>
        <mxCell id="bDkhIBPVNsRJTkhS41g2-13" value="" style="line;strokeWidth=1;fillColor=none;align=left;verticalAlign=middle;spacingTop=-1;spacingLeft=3;spacingRight=3;rotatable=0;labelPosition=right;points=[];portConstraint=eastwest;strokeColor=inherit;" parent="bDkhIBPVNsRJTkhS41g2-11" vertex="1">
          <mxGeometry y="52" width="160" height="8" as="geometry" />
        </mxCell>
        <mxCell id="bDkhIBPVNsRJTkhS41g2-14" value="+ method(type): type" style="text;strokeColor=none;fillColor=none;align=left;verticalAlign=top;spacingLeft=4;spacingRight=4;overflow=hidden;rotatable=0;points=[[0,0.5],[1,0.5]];portConstraint=eastwest;whiteSpace=wrap;html=1;" parent="bDkhIBPVNsRJTkhS41g2-11" vertex="1">
          <mxGeometry y="60" width="160" height="26" as="geometry" />
        </mxCell>
        <mxCell id="bDkhIBPVNsRJTkhS41g2-15" value="" style="endArrow=none;html=1;edgeStyle=orthogonalEdgeStyle;rounded=0;exitX=1;exitY=0.75;exitDx=0;exitDy=0;entryX=0.146;entryY=0.004;entryDx=0;entryDy=0;entryPerimeter=0;" parent="1" source="bDkhIBPVNsRJTkhS41g2-11" target="NtrmIHfhrDVlRuXKEvSe-1" edge="1">
          <mxGeometry relative="1" as="geometry">
            <mxPoint x="40" y="280" as="sourcePoint" />
            <mxPoint x="200" y="280" as="targetPoint" />
          </mxGeometry>
        </mxCell>
        <mxCell id="R5hO7OBhMF9cSjUWa8Gc-1" value="" style="endArrow=none;html=1;rounded=0;exitX=0.679;exitY=0.007;exitDx=0;exitDy=0;exitPerimeter=0;entryX=0;entryY=0.5;entryDx=0;entryDy=0;" parent="1" source="NtrmIHfhrDVlRuXKEvSe-1" target="NtrmIHfhrDVlRuXKEvSe-45" edge="1">
          <mxGeometry width="50" height="50" relative="1" as="geometry">
            <mxPoint x="250" y="286" as="sourcePoint" />
            <mxPoint x="300" y="236" as="targetPoint" />
          </mxGeometry>
        </mxCell>
        <mxCell id="R5hO7OBhMF9cSjUWa8Gc-3" value="" style="endArrow=none;html=1;rounded=0;exitX=0.998;exitY=0.649;exitDx=0;exitDy=0;exitPerimeter=0;entryX=0.005;entryY=0.642;entryDx=0;entryDy=0;entryPerimeter=0;" parent="1" source="NtrmIHfhrDVlRuXKEvSe-45" target="NtrmIHfhrDVlRuXKEvSe-49" edge="1">
          <mxGeometry width="50" height="50" relative="1" as="geometry">
            <mxPoint x="480" y="270" as="sourcePoint" />
            <mxPoint x="530" y="220" as="targetPoint" />
          </mxGeometry>
        </mxCell>
        <mxCell id="R5hO7OBhMF9cSjUWa8Gc-5" value="" style="endArrow=none;html=1;rounded=0;exitX=0.998;exitY=0.334;exitDx=0;exitDy=0;exitPerimeter=0;entryX=0;entryY=0.334;entryDx=0;entryDy=0;entryPerimeter=0;" parent="1" source="NtrmIHfhrDVlRuXKEvSe-49" target="NtrmIHfhrDVlRuXKEvSe-53" edge="1">
          <mxGeometry width="50" height="50" relative="1" as="geometry">
            <mxPoint x="780" y="280" as="sourcePoint" />
            <mxPoint x="830" y="230" as="targetPoint" />
          </mxGeometry>
        </mxCell>
        <mxCell id="R5hO7OBhMF9cSjUWa8Gc-6" value="" style="endArrow=none;html=1;rounded=0;exitX=1;exitY=0;exitDx=0;exitDy=0;" parent="1" source="bDkhIBPVNsRJTkhS41g2-4" edge="1">
          <mxGeometry width="50" height="50" relative="1" as="geometry">
            <mxPoint x="140" y="400" as="sourcePoint" />
            <mxPoint x="190" y="350" as="targetPoint" />
          </mxGeometry>
        </mxCell>
        <mxCell id="R5hO7OBhMF9cSjUWa8Gc-7" value="" style="endArrow=none;html=1;rounded=0;entryX=0.5;entryY=1;entryDx=0;entryDy=0;exitX=0.421;exitY=0.007;exitDx=0;exitDy=0;exitPerimeter=0;" parent="1" source="NtrmIHfhrDVlRuXKEvSe-9" target="NtrmIHfhrDVlRuXKEvSe-1" edge="1">
          <mxGeometry width="50" height="50" relative="1" as="geometry">
            <mxPoint x="200" y="420" as="sourcePoint" />
            <mxPoint x="250" y="370" as="targetPoint" />
          </mxGeometry>
        </mxCell>
        <mxCell id="R5hO7OBhMF9cSjUWa8Gc-8" value="" style="endArrow=none;html=1;rounded=0;entryX=-0.006;entryY=0.566;entryDx=0;entryDy=0;entryPerimeter=0;" parent="1" target="NtrmIHfhrDVlRuXKEvSe-1" edge="1">
          <mxGeometry width="50" height="50" relative="1" as="geometry">
            <mxPoint x="130" y="337" as="sourcePoint" />
            <mxPoint x="150" y="350" as="targetPoint" />
          </mxGeometry>
        </mxCell>
        <mxCell id="R5hO7OBhMF9cSjUWa8Gc-9" value="" style="endArrow=none;html=1;rounded=0;exitX=1;exitY=0.5;exitDx=0;exitDy=0;entryX=0;entryY=0.5;entryDx=0;entryDy=0;" parent="1" source="NtrmIHfhrDVlRuXKEvSe-1" target="NtrmIHfhrDVlRuXKEvSe-5" edge="1">
          <mxGeometry width="50" height="50" relative="1" as="geometry">
            <mxPoint x="370" y="360" as="sourcePoint" />
            <mxPoint x="420" y="310" as="targetPoint" />
          </mxGeometry>
        </mxCell>
        <mxCell id="R5hO7OBhMF9cSjUWa8Gc-10" value="" style="endArrow=none;html=1;rounded=0;exitX=1;exitY=0.5;exitDx=0;exitDy=0;entryX=0;entryY=0.5;entryDx=0;entryDy=0;" parent="1" source="NtrmIHfhrDVlRuXKEvSe-9" target="NtrmIHfhrDVlRuXKEvSe-13" edge="1">
          <mxGeometry width="50" height="50" relative="1" as="geometry">
            <mxPoint x="500" y="470" as="sourcePoint" />
            <mxPoint x="550" y="420" as="targetPoint" />
          </mxGeometry>
        </mxCell>
        <mxCell id="R5hO7OBhMF9cSjUWa8Gc-11" value="" style="endArrow=none;html=1;rounded=0;entryX=0;entryY=0.5;entryDx=0;entryDy=0;" parent="1" target="NtrmIHfhrDVlRuXKEvSe-21" edge="1">
          <mxGeometry width="50" height="50" relative="1" as="geometry">
            <mxPoint x="240" y="470" as="sourcePoint" />
            <mxPoint x="420" y="500" as="targetPoint" />
            <Array as="points">
              <mxPoint x="240" y="505" />
            </Array>
          </mxGeometry>
        </mxCell>
        <mxCell id="R5hO7OBhMF9cSjUWa8Gc-12" value="" style="endArrow=none;html=1;rounded=0;exitX=1;exitY=0.75;exitDx=0;exitDy=0;entryX=0.25;entryY=1;entryDx=0;entryDy=0;" parent="1" target="NtrmIHfhrDVlRuXKEvSe-13" edge="1">
          <mxGeometry width="50" height="50" relative="1" as="geometry">
            <mxPoint x="560" y="507.5000000000001" as="sourcePoint" />
            <mxPoint x="670" y="465" as="targetPoint" />
            <Array as="points">
              <mxPoint x="821" y="508" />
            </Array>
          </mxGeometry>
        </mxCell>
        <mxCell id="R5hO7OBhMF9cSjUWa8Gc-13" value="" style="endArrow=none;html=1;rounded=0;entryX=0.75;entryY=1;entryDx=0;entryDy=0;exitX=0.57;exitY=-0.014;exitDx=0;exitDy=0;exitPerimeter=0;" parent="1" source="NtrmIHfhrDVlRuXKEvSe-29" target="NtrmIHfhrDVlRuXKEvSe-13" edge="1">
          <mxGeometry width="50" height="50" relative="1" as="geometry">
            <mxPoint x="520" y="560" as="sourcePoint" />
            <mxPoint x="840" y="520" as="targetPoint" />
            <Array as="points">
              <mxPoint x="530" y="570" />
              <mxPoint x="530" y="560" />
              <mxPoint x="720" y="560" />
              <mxPoint x="860" y="560" />
            </Array>
          </mxGeometry>
        </mxCell>
        <mxCell id="R5hO7OBhMF9cSjUWa8Gc-14" value="" style="endArrow=none;html=1;rounded=0;exitX=1;exitY=0.5;exitDx=0;exitDy=0;entryX=0;entryY=0.5;entryDx=0;entryDy=0;" parent="1" edge="1">
          <mxGeometry width="50" height="50" relative="1" as="geometry">
            <mxPoint x="560" y="599.0000000000001" as="sourcePoint" />
            <mxPoint x="760" y="599.0000000000001" as="targetPoint" />
          </mxGeometry>
        </mxCell>
        <mxCell id="R5hO7OBhMF9cSjUWa8Gc-15" value="" style="endArrow=none;html=1;rounded=0;exitX=-0.002;exitY=0.653;exitDx=0;exitDy=0;exitPerimeter=0;" parent="1" source="NtrmIHfhrDVlRuXKEvSe-37" edge="1">
          <mxGeometry width="50" height="50" relative="1" as="geometry">
            <mxPoint x="500" y="680" as="sourcePoint" />
            <mxPoint x="520" y="610" as="targetPoint" />
            <Array as="points">
              <mxPoint x="520" y="660" />
            </Array>
          </mxGeometry>
        </mxCell>
        <mxCell id="R5hO7OBhMF9cSjUWa8Gc-16" value="" style="endArrow=none;html=1;rounded=0;exitX=1;exitY=0.5;exitDx=0;exitDy=0;entryX=0.5;entryY=1;entryDx=0;entryDy=0;" parent="1" source="NtrmIHfhrDVlRuXKEvSe-37" target="NtrmIHfhrDVlRuXKEvSe-33" edge="1">
          <mxGeometry width="50" height="50" relative="1" as="geometry">
            <mxPoint x="739.9999999999999" y="660.38" as="sourcePoint" />
            <mxPoint x="819.61" y="630" as="targetPoint" />
            <Array as="points">
              <mxPoint x="805" y="655" />
            </Array>
          </mxGeometry>
        </mxCell>
        <mxCell id="R5hO7OBhMF9cSjUWa8Gc-17" value="" style="endArrow=none;html=1;rounded=0;exitX=1;exitY=0.5;exitDx=0;exitDy=0;entryX=0.787;entryY=-0.021;entryDx=0;entryDy=0;entryPerimeter=0;" parent="1" source="NtrmIHfhrDVlRuXKEvSe-13" target="NtrmIHfhrDVlRuXKEvSe-25" edge="1">
          <mxGeometry width="50" height="50" relative="1" as="geometry">
            <mxPoint x="930" y="490" as="sourcePoint" />
            <mxPoint x="980" y="440" as="targetPoint" />
            <Array as="points">
              <mxPoint x="974" y="456" />
            </Array>
          </mxGeometry>
        </mxCell>
        <mxCell id="_Od2tw-m8q1G7f-QNHVL-1" value="&lt;font style=&quot;font-size: 36px;&quot;&gt;&lt;b&gt;&lt;u&gt;Intial Class&lt;/u&gt;&lt;/b&gt;&lt;/font&gt;" style="text;html=1;align=center;verticalAlign=middle;resizable=0;points=[];autosize=1;strokeColor=none;fillColor=none;" parent="1" vertex="1">
          <mxGeometry x="430" y="13" width="210" height="60" as="geometry" />
        </mxCell>
        <mxCell id="wFj39m4umSYZoHs4gt4S-1" value="" style="endArrow=none;html=1;rounded=0;exitX=0.727;exitY=0;exitDx=0;exitDy=0;exitPerimeter=0;" parent="1" edge="1">
          <mxGeometry width="50" height="50" relative="1" as="geometry">
            <mxPoint x="945.97" y="230" as="sourcePoint" />
            <mxPoint x="946" y="170" as="targetPoint" />
          </mxGeometry>
        </mxCell>
      </root>
    </mxGraphModel>
  </diagram>
  <diagram id="mF8ThvFu-YU_VguoR6pZ" name="IntermediateClass">
    <mxGraphModel dx="1068" dy="478" grid="1" gridSize="10" guides="1" tooltips="1" connect="1" arrows="1" fold="1" page="1" pageScale="1" pageWidth="827" pageHeight="1169" math="0" shadow="0">
      <root>
        <mxCell id="0" />
        <mxCell id="1" parent="0" />
        <mxCell id="7D-WIvyN03_g86bMiqR9-4" value="Student" style="swimlane;fontStyle=1;align=center;verticalAlign=top;childLayout=stackLayout;horizontal=1;startSize=26;horizontalStack=0;resizeParent=1;resizeParentMax=0;resizeLast=0;collapsible=1;marginBottom=0;whiteSpace=wrap;html=1;" parent="1" vertex="1">
          <mxGeometry x="475" y="310" width="160" height="200" as="geometry">
            <mxRectangle x="190" y="400" width="80" height="30" as="alternateBounds" />
          </mxGeometry>
        </mxCell>
        <mxCell id="7D-WIvyN03_g86bMiqR9-5" value="UserId&lt;div&gt;age&lt;/div&gt;" style="text;strokeColor=none;fillColor=none;align=left;verticalAlign=top;spacingLeft=4;spacingRight=4;overflow=hidden;rotatable=0;points=[[0,0.5],[1,0.5]];portConstraint=eastwest;whiteSpace=wrap;html=1;" parent="7D-WIvyN03_g86bMiqR9-4" vertex="1">
          <mxGeometry y="26" width="160" height="34" as="geometry" />
        </mxCell>
        <mxCell id="7D-WIvyN03_g86bMiqR9-6" value="" style="line;strokeWidth=1;fillColor=none;align=left;verticalAlign=middle;spacingTop=-1;spacingLeft=3;spacingRight=3;rotatable=0;labelPosition=right;points=[];portConstraint=eastwest;strokeColor=inherit;" parent="7D-WIvyN03_g86bMiqR9-4" vertex="1">
          <mxGeometry y="60" width="160" height="8" as="geometry" />
        </mxCell>
        <mxCell id="7D-WIvyN03_g86bMiqR9-7" value="setUserId()&lt;div&gt;getUserId()&lt;/div&gt;&lt;div&gt;setAge()&lt;/div&gt;&lt;div&gt;getAge()&lt;br&gt;RegisterCourse()&lt;div&gt;GiveEvaluation()&lt;br&gt;&lt;/div&gt;&lt;div&gt;GetGrades()&lt;/div&gt;&lt;div&gt;GetCertificates()&lt;/div&gt;&lt;/div&gt;" style="text;strokeColor=none;fillColor=none;align=left;verticalAlign=top;spacingLeft=4;spacingRight=4;overflow=hidden;rotatable=0;points=[[0,0.5],[1,0.5]];portConstraint=eastwest;whiteSpace=wrap;html=1;" parent="7D-WIvyN03_g86bMiqR9-4" vertex="1">
          <mxGeometry y="68" width="160" height="132" as="geometry" />
        </mxCell>
        <mxCell id="7D-WIvyN03_g86bMiqR9-8" value="Faculty member" style="swimlane;fontStyle=1;align=center;verticalAlign=top;childLayout=stackLayout;horizontal=1;startSize=26;horizontalStack=0;resizeParent=1;resizeParentMax=0;resizeLast=0;collapsible=1;marginBottom=0;whiteSpace=wrap;html=1;" parent="1" vertex="1">
          <mxGeometry x="20" y="850" width="170" height="240" as="geometry" />
        </mxCell>
        <mxCell id="7D-WIvyN03_g86bMiqR9-9" value="UserId&lt;div&gt;SsNo&amp;nbsp;&lt;/div&gt;" style="text;strokeColor=none;fillColor=none;align=left;verticalAlign=top;spacingLeft=4;spacingRight=4;overflow=hidden;rotatable=0;points=[[0,0.5],[1,0.5]];portConstraint=eastwest;whiteSpace=wrap;html=1;" parent="7D-WIvyN03_g86bMiqR9-8" vertex="1">
          <mxGeometry y="26" width="170" height="34" as="geometry" />
        </mxCell>
        <mxCell id="7D-WIvyN03_g86bMiqR9-10" value="" style="line;strokeWidth=1;fillColor=none;align=left;verticalAlign=middle;spacingTop=-1;spacingLeft=3;spacingRight=3;rotatable=0;labelPosition=right;points=[];portConstraint=eastwest;strokeColor=inherit;" parent="7D-WIvyN03_g86bMiqR9-8" vertex="1">
          <mxGeometry y="60" width="170" height="8" as="geometry" />
        </mxCell>
        <mxCell id="7D-WIvyN03_g86bMiqR9-11" value="setUserId()&lt;br&gt;getUserId()&lt;div&gt;setSsNo(&lt;span style=&quot;background-color: transparent; color: light-dark(rgb(0, 0, 0), rgb(255, 255, 255));&quot;&gt;)&lt;/span&gt;&lt;/div&gt;&lt;div&gt;&lt;span style=&quot;background-color: transparent; color: light-dark(rgb(0, 0, 0), rgb(255, 255, 255));&quot;&gt;getSsNo()&lt;/span&gt;&lt;/div&gt;&lt;div&gt;AddCourseMaterial()&lt;div&gt;UpdateCourseMaterial()&lt;/div&gt;&lt;div&gt;DeleteCourseMaterial()&lt;br&gt;UploadVideo()&lt;/div&gt;&lt;div&gt;AddExam()&lt;/div&gt;&lt;div&gt;UpdateExam()&lt;br&gt;AddSchedule()&lt;/div&gt;&lt;/div&gt;" style="text;strokeColor=none;fillColor=none;align=left;verticalAlign=top;spacingLeft=4;spacingRight=4;overflow=hidden;rotatable=0;points=[[0,0.5],[1,0.5]];portConstraint=eastwest;whiteSpace=wrap;html=1;" parent="7D-WIvyN03_g86bMiqR9-8" vertex="1">
          <mxGeometry y="68" width="170" height="172" as="geometry" />
        </mxCell>
        <mxCell id="7D-WIvyN03_g86bMiqR9-12" value="Course" style="swimlane;fontStyle=1;align=center;verticalAlign=top;childLayout=stackLayout;horizontal=1;startSize=26;horizontalStack=0;resizeParent=1;resizeParentMax=0;resizeLast=0;collapsible=1;marginBottom=0;whiteSpace=wrap;html=1;" parent="1" vertex="1">
          <mxGeometry x="452" y="720" width="160" height="210" as="geometry" />
        </mxCell>
        <mxCell id="7D-WIvyN03_g86bMiqR9-13" value="CrsId&lt;div&gt;CrsName&amp;nbsp;&lt;/div&gt;&lt;div&gt;Description&lt;/div&gt;" style="text;strokeColor=none;fillColor=none;align=left;verticalAlign=top;spacingLeft=4;spacingRight=4;overflow=hidden;rotatable=0;points=[[0,0.5],[1,0.5]];portConstraint=eastwest;whiteSpace=wrap;html=1;" parent="7D-WIvyN03_g86bMiqR9-12" vertex="1">
          <mxGeometry y="26" width="160" height="54" as="geometry" />
        </mxCell>
        <mxCell id="7D-WIvyN03_g86bMiqR9-14" value="" style="line;strokeWidth=1;fillColor=none;align=left;verticalAlign=middle;spacingTop=-1;spacingLeft=3;spacingRight=3;rotatable=0;labelPosition=right;points=[];portConstraint=eastwest;strokeColor=inherit;" parent="7D-WIvyN03_g86bMiqR9-12" vertex="1">
          <mxGeometry y="80" width="160" height="8" as="geometry" />
        </mxCell>
        <mxCell id="7D-WIvyN03_g86bMiqR9-15" value="setCrsId()&lt;div&gt;getCrsId()&lt;/div&gt;&lt;div&gt;setCrsName()&lt;/div&gt;&lt;div&gt;getCrsName()&lt;/div&gt;&lt;div&gt;setDescription()&lt;/div&gt;&lt;div&gt;getDescription()&lt;br&gt;GetAllCourses()&lt;div&gt;ShowCourse()&lt;/div&gt;&lt;/div&gt;" style="text;strokeColor=none;fillColor=none;align=left;verticalAlign=top;spacingLeft=4;spacingRight=4;overflow=hidden;rotatable=0;points=[[0,0.5],[1,0.5]];portConstraint=eastwest;whiteSpace=wrap;html=1;" parent="7D-WIvyN03_g86bMiqR9-12" vertex="1">
          <mxGeometry y="88" width="160" height="122" as="geometry" />
        </mxCell>
        <mxCell id="7D-WIvyN03_g86bMiqR9-16" value="CourseRegistration" style="swimlane;fontStyle=1;align=center;verticalAlign=top;childLayout=stackLayout;horizontal=1;startSize=26;horizontalStack=0;resizeParent=1;resizeParentMax=0;resizeLast=0;collapsible=1;marginBottom=0;whiteSpace=wrap;html=1;" parent="1" vertex="1">
          <mxGeometry x="612" y="510" width="160" height="130" as="geometry" />
        </mxCell>
        <mxCell id="7D-WIvyN03_g86bMiqR9-17" value="Grade" style="text;strokeColor=none;fillColor=none;align=left;verticalAlign=top;spacingLeft=4;spacingRight=4;overflow=hidden;rotatable=0;points=[[0,0.5],[1,0.5]];portConstraint=eastwest;whiteSpace=wrap;html=1;" parent="7D-WIvyN03_g86bMiqR9-16" vertex="1">
          <mxGeometry y="26" width="160" height="24" as="geometry" />
        </mxCell>
        <mxCell id="7D-WIvyN03_g86bMiqR9-18" value="" style="line;strokeWidth=1;fillColor=none;align=left;verticalAlign=middle;spacingTop=-1;spacingLeft=3;spacingRight=3;rotatable=0;labelPosition=right;points=[];portConstraint=eastwest;strokeColor=inherit;" parent="7D-WIvyN03_g86bMiqR9-16" vertex="1">
          <mxGeometry y="50" width="160" height="8" as="geometry" />
        </mxCell>
        <mxCell id="7D-WIvyN03_g86bMiqR9-19" value="setGrade()&lt;br&gt;getGrade()&lt;br&gt;&lt;div&gt;ShowGrades()&lt;/div&gt;&lt;div&gt;CheckNumberOfCourses()&lt;/div&gt;" style="text;strokeColor=none;fillColor=none;align=left;verticalAlign=top;spacingLeft=4;spacingRight=4;overflow=hidden;rotatable=0;points=[[0,0.5],[1,0.5]];portConstraint=eastwest;whiteSpace=wrap;html=1;" parent="7D-WIvyN03_g86bMiqR9-16" vertex="1">
          <mxGeometry y="58" width="160" height="72" as="geometry" />
        </mxCell>
        <mxCell id="7D-WIvyN03_g86bMiqR9-20" value="Schedule" style="swimlane;fontStyle=1;align=center;verticalAlign=top;childLayout=stackLayout;horizontal=1;startSize=26;horizontalStack=0;resizeParent=1;resizeParentMax=0;resizeLast=0;collapsible=1;marginBottom=0;whiteSpace=wrap;html=1;" parent="1" vertex="1">
          <mxGeometry x="231" y="722" width="160" height="200" as="geometry" />
        </mxCell>
        <mxCell id="7D-WIvyN03_g86bMiqR9-21" value="scheId&amp;nbsp;&lt;div&gt;Date&amp;nbsp;&lt;/div&gt;&lt;div&gt;EventType&amp;nbsp;&lt;/div&gt;" style="text;strokeColor=none;fillColor=none;align=left;verticalAlign=top;spacingLeft=4;spacingRight=4;overflow=hidden;rotatable=0;points=[[0,0.5],[1,0.5]];portConstraint=eastwest;whiteSpace=wrap;html=1;" parent="7D-WIvyN03_g86bMiqR9-20" vertex="1">
          <mxGeometry y="26" width="160" height="54" as="geometry" />
        </mxCell>
        <mxCell id="7D-WIvyN03_g86bMiqR9-22" value="" style="line;strokeWidth=1;fillColor=none;align=left;verticalAlign=middle;spacingTop=-1;spacingLeft=3;spacingRight=3;rotatable=0;labelPosition=right;points=[];portConstraint=eastwest;strokeColor=inherit;" parent="7D-WIvyN03_g86bMiqR9-20" vertex="1">
          <mxGeometry y="80" width="160" height="8" as="geometry" />
        </mxCell>
        <mxCell id="7D-WIvyN03_g86bMiqR9-23" value="setSchId()&lt;div&gt;getSchId()&lt;/div&gt;&lt;div&gt;setDate()&lt;/div&gt;&lt;div&gt;getDate()&lt;/div&gt;&lt;div&gt;setEventType()&lt;br&gt;getEventType()&lt;br&gt;GetSchedule()&lt;/div&gt;" style="text;strokeColor=none;fillColor=none;align=left;verticalAlign=top;spacingLeft=4;spacingRight=4;overflow=hidden;rotatable=0;points=[[0,0.5],[1,0.5]];portConstraint=eastwest;whiteSpace=wrap;html=1;" parent="7D-WIvyN03_g86bMiqR9-20" vertex="1">
          <mxGeometry y="88" width="160" height="112" as="geometry" />
        </mxCell>
        <mxCell id="7D-WIvyN03_g86bMiqR9-24" value="CourseVideos" style="swimlane;fontStyle=1;align=center;verticalAlign=top;childLayout=stackLayout;horizontal=1;startSize=26;horizontalStack=0;resizeParent=1;resizeParentMax=0;resizeLast=0;collapsible=1;marginBottom=0;whiteSpace=wrap;html=1;" parent="1" vertex="1">
          <mxGeometry x="667" y="740" width="150" height="170" as="geometry" />
        </mxCell>
        <mxCell id="7D-WIvyN03_g86bMiqR9-25" value="VideoId&amp;nbsp;&lt;div&gt;VideoPath&lt;/div&gt;&lt;div&gt;&lt;br&gt;&lt;/div&gt;" style="text;strokeColor=none;fillColor=none;align=left;verticalAlign=top;spacingLeft=4;spacingRight=4;overflow=hidden;rotatable=0;points=[[0,0.5],[1,0.5]];portConstraint=eastwest;whiteSpace=wrap;html=1;" parent="7D-WIvyN03_g86bMiqR9-24" vertex="1">
          <mxGeometry y="26" width="150" height="34" as="geometry" />
        </mxCell>
        <mxCell id="7D-WIvyN03_g86bMiqR9-26" value="" style="line;strokeWidth=1;fillColor=none;align=left;verticalAlign=middle;spacingTop=-1;spacingLeft=3;spacingRight=3;rotatable=0;labelPosition=right;points=[];portConstraint=eastwest;strokeColor=inherit;" parent="7D-WIvyN03_g86bMiqR9-24" vertex="1">
          <mxGeometry y="60" width="150" height="8" as="geometry" />
        </mxCell>
        <mxCell id="7D-WIvyN03_g86bMiqR9-27" value="setVideoId()&lt;div&gt;getVideoId()&lt;/div&gt;&lt;div&gt;setVideoPath()&lt;br&gt;getVideoPath()&lt;br&gt;AddVideo()&lt;br&gt;GetVideo()&lt;/div&gt;" style="text;strokeColor=none;fillColor=none;align=left;verticalAlign=top;spacingLeft=4;spacingRight=4;overflow=hidden;rotatable=0;points=[[0,0.5],[1,0.5]];portConstraint=eastwest;whiteSpace=wrap;html=1;" parent="7D-WIvyN03_g86bMiqR9-24" vertex="1">
          <mxGeometry y="68" width="150" height="102" as="geometry" />
        </mxCell>
        <mxCell id="7D-WIvyN03_g86bMiqR9-28" value="Exam" style="swimlane;fontStyle=1;align=center;verticalAlign=top;childLayout=stackLayout;horizontal=1;startSize=26;horizontalStack=0;resizeParent=1;resizeParentMax=0;resizeLast=0;collapsible=1;marginBottom=0;whiteSpace=wrap;html=1;" parent="1" vertex="1">
          <mxGeometry x="440" y="974" width="160" height="248" as="geometry" />
        </mxCell>
        <mxCell id="7D-WIvyN03_g86bMiqR9-29" value="ExamId&amp;nbsp;&lt;div&gt;Title&amp;nbsp;&amp;nbsp;&lt;/div&gt;&lt;div&gt;Type&amp;nbsp;&amp;nbsp;&lt;/div&gt;&lt;div&gt;Date&amp;nbsp;&lt;/div&gt;&lt;div&gt;&lt;br&gt;&lt;/div&gt;" style="text;strokeColor=none;fillColor=none;align=left;verticalAlign=top;spacingLeft=4;spacingRight=4;overflow=hidden;rotatable=0;points=[[0,0.5],[1,0.5]];portConstraint=eastwest;whiteSpace=wrap;html=1;" parent="7D-WIvyN03_g86bMiqR9-28" vertex="1">
          <mxGeometry y="26" width="160" height="64" as="geometry" />
        </mxCell>
        <mxCell id="7D-WIvyN03_g86bMiqR9-30" value="" style="line;strokeWidth=1;fillColor=none;align=left;verticalAlign=middle;spacingTop=-1;spacingLeft=3;spacingRight=3;rotatable=0;labelPosition=right;points=[];portConstraint=eastwest;strokeColor=inherit;" parent="7D-WIvyN03_g86bMiqR9-28" vertex="1">
          <mxGeometry y="90" width="160" height="8" as="geometry" />
        </mxCell>
        <mxCell id="7D-WIvyN03_g86bMiqR9-31" value="setExamId()&lt;div&gt;getExamId()&lt;/div&gt;&lt;div&gt;setTitle()&lt;/div&gt;&lt;div&gt;getTitle()&lt;/div&gt;&lt;div&gt;setType()&lt;/div&gt;&lt;div&gt;getType()&lt;/div&gt;&lt;div&gt;setDate()&lt;br&gt;getDate()&lt;br&gt;GetExam()&lt;/div&gt;" style="text;strokeColor=none;fillColor=none;align=left;verticalAlign=top;spacingLeft=4;spacingRight=4;overflow=hidden;rotatable=0;points=[[0,0.5],[1,0.5]];portConstraint=eastwest;whiteSpace=wrap;html=1;" parent="7D-WIvyN03_g86bMiqR9-28" vertex="1">
          <mxGeometry y="98" width="160" height="150" as="geometry" />
        </mxCell>
        <mxCell id="7D-WIvyN03_g86bMiqR9-32" value="StudentAnswers" style="swimlane;fontStyle=1;align=center;verticalAlign=top;childLayout=stackLayout;horizontal=1;startSize=26;horizontalStack=0;resizeParent=1;resizeParentMax=0;resizeLast=0;collapsible=1;marginBottom=0;whiteSpace=wrap;html=1;" parent="1" vertex="1">
          <mxGeometry x="80" y="1134" width="160" height="210" as="geometry" />
        </mxCell>
        <mxCell id="7D-WIvyN03_g86bMiqR9-33" value="AnswerId&lt;div&gt;Answer&amp;nbsp;&lt;/div&gt;&lt;div&gt;IsCorrect&amp;nbsp;&lt;/div&gt;" style="text;strokeColor=none;fillColor=none;align=left;verticalAlign=top;spacingLeft=4;spacingRight=4;overflow=hidden;rotatable=0;points=[[0,0.5],[1,0.5]];portConstraint=eastwest;whiteSpace=wrap;html=1;" parent="7D-WIvyN03_g86bMiqR9-32" vertex="1">
          <mxGeometry y="26" width="160" height="54" as="geometry" />
        </mxCell>
        <mxCell id="7D-WIvyN03_g86bMiqR9-34" value="" style="line;strokeWidth=1;fillColor=none;align=left;verticalAlign=middle;spacingTop=-1;spacingLeft=3;spacingRight=3;rotatable=0;labelPosition=right;points=[];portConstraint=eastwest;strokeColor=inherit;" parent="7D-WIvyN03_g86bMiqR9-32" vertex="1">
          <mxGeometry y="80" width="160" height="8" as="geometry" />
        </mxCell>
        <mxCell id="7D-WIvyN03_g86bMiqR9-35" value="setAnswerId()&lt;div&gt;getAnswerId()&lt;/div&gt;&lt;div&gt;setAnswer()&lt;br&gt;getAnswer()&lt;br&gt;setIsCorrect()&lt;br&gt;getIsCorrect()&lt;br&gt;AddAnswer()&lt;br&gt;GetAnswer()&lt;/div&gt;" style="text;strokeColor=none;fillColor=none;align=left;verticalAlign=top;spacingLeft=4;spacingRight=4;overflow=hidden;rotatable=0;points=[[0,0.5],[1,0.5]];portConstraint=eastwest;whiteSpace=wrap;html=1;" parent="7D-WIvyN03_g86bMiqR9-32" vertex="1">
          <mxGeometry y="88" width="160" height="122" as="geometry" />
        </mxCell>
        <mxCell id="7D-WIvyN03_g86bMiqR9-36" value="Notification" style="swimlane;fontStyle=1;align=center;verticalAlign=top;childLayout=stackLayout;horizontal=1;startSize=26;horizontalStack=0;resizeParent=1;resizeParentMax=0;resizeLast=0;collapsible=1;marginBottom=0;whiteSpace=wrap;html=1;" parent="1" vertex="1">
          <mxGeometry x="30" y="320" width="160" height="250" as="geometry" />
        </mxCell>
        <mxCell id="7D-WIvyN03_g86bMiqR9-37" value="NotifId&lt;div&gt;Message&amp;nbsp;&lt;/div&gt;&lt;div&gt;IsRead&lt;/div&gt;&lt;div&gt;DateSent&amp;nbsp;&lt;/div&gt;" style="text;strokeColor=none;fillColor=none;align=left;verticalAlign=top;spacingLeft=4;spacingRight=4;overflow=hidden;rotatable=0;points=[[0,0.5],[1,0.5]];portConstraint=eastwest;whiteSpace=wrap;html=1;" parent="7D-WIvyN03_g86bMiqR9-36" vertex="1">
          <mxGeometry y="26" width="160" height="64" as="geometry" />
        </mxCell>
        <mxCell id="7D-WIvyN03_g86bMiqR9-38" value="" style="line;strokeWidth=1;fillColor=none;align=left;verticalAlign=middle;spacingTop=-1;spacingLeft=3;spacingRight=3;rotatable=0;labelPosition=right;points=[];portConstraint=eastwest;strokeColor=inherit;" parent="7D-WIvyN03_g86bMiqR9-36" vertex="1">
          <mxGeometry y="90" width="160" height="8" as="geometry" />
        </mxCell>
        <mxCell id="7D-WIvyN03_g86bMiqR9-39" value="setNotifId()&lt;div&gt;getNotifId()&lt;br&gt;setIsRead()&lt;/div&gt;&lt;div&gt;getIsRead()&lt;br&gt;setDateSent()&lt;/div&gt;&lt;div&gt;getDateSent()&lt;/div&gt;&lt;div&gt;setMessage()&lt;br&gt;getMessage()&lt;br&gt;SendNotification()&lt;br&gt;MarkAsRead()&lt;/div&gt;" style="text;strokeColor=none;fillColor=none;align=left;verticalAlign=top;spacingLeft=4;spacingRight=4;overflow=hidden;rotatable=0;points=[[0,0.5],[1,0.5]];portConstraint=eastwest;whiteSpace=wrap;html=1;" parent="7D-WIvyN03_g86bMiqR9-36" vertex="1">
          <mxGeometry y="98" width="160" height="152" as="geometry" />
        </mxCell>
        <mxCell id="7D-WIvyN03_g86bMiqR9-40" value="Evaluation" style="swimlane;fontStyle=1;align=center;verticalAlign=top;childLayout=stackLayout;horizontal=1;startSize=26;horizontalStack=0;resizeParent=1;resizeParentMax=0;resizeLast=0;collapsible=1;marginBottom=0;whiteSpace=wrap;html=1;" parent="1" vertex="1">
          <mxGeometry x="10" y="46" width="160" height="200" as="geometry" />
        </mxCell>
        <mxCell id="7D-WIvyN03_g86bMiqR9-41" value="EvaluationId&amp;nbsp;&lt;div&gt;Date : date&lt;/div&gt;&lt;div&gt;comment&amp;nbsp;&lt;/div&gt;" style="text;strokeColor=none;fillColor=none;align=left;verticalAlign=top;spacingLeft=4;spacingRight=4;overflow=hidden;rotatable=0;points=[[0,0.5],[1,0.5]];portConstraint=eastwest;whiteSpace=wrap;html=1;" parent="7D-WIvyN03_g86bMiqR9-40" vertex="1">
          <mxGeometry y="26" width="160" height="54" as="geometry" />
        </mxCell>
        <mxCell id="7D-WIvyN03_g86bMiqR9-42" value="" style="line;strokeWidth=1;fillColor=none;align=left;verticalAlign=middle;spacingTop=-1;spacingLeft=3;spacingRight=3;rotatable=0;labelPosition=right;points=[];portConstraint=eastwest;strokeColor=inherit;" parent="7D-WIvyN03_g86bMiqR9-40" vertex="1">
          <mxGeometry y="80" width="160" height="8" as="geometry" />
        </mxCell>
        <mxCell id="7D-WIvyN03_g86bMiqR9-43" value="setEvaluationId()&lt;div&gt;getEvaluationId()&lt;br&gt;setDate()&lt;/div&gt;&lt;div&gt;getDate()&lt;/div&gt;&lt;div&gt;setcomment()&lt;br&gt;getcomment()&lt;br&gt;Get&lt;span style=&quot;text-align: center;&quot;&gt;Evaluations&lt;/span&gt;&lt;span style=&quot;font-weight: 700; text-align: center;&quot;&gt;()&lt;/span&gt;&lt;/div&gt;" style="text;strokeColor=none;fillColor=none;align=left;verticalAlign=top;spacingLeft=4;spacingRight=4;overflow=hidden;rotatable=0;points=[[0,0.5],[1,0.5]];portConstraint=eastwest;whiteSpace=wrap;html=1;" parent="7D-WIvyN03_g86bMiqR9-40" vertex="1">
          <mxGeometry y="88" width="160" height="112" as="geometry" />
        </mxCell>
        <mxCell id="7D-WIvyN03_g86bMiqR9-44" value="Questionnaire" style="swimlane;fontStyle=1;align=center;verticalAlign=top;childLayout=stackLayout;horizontal=1;startSize=26;horizontalStack=0;resizeParent=1;resizeParentMax=0;resizeLast=0;collapsible=1;marginBottom=0;whiteSpace=wrap;html=1;" parent="1" vertex="1">
          <mxGeometry x="382" y="80" width="160" height="210" as="geometry" />
        </mxCell>
        <mxCell id="7D-WIvyN03_g86bMiqR9-45" value="QuestionnaireId&amp;nbsp;&lt;div&gt;Type&amp;nbsp;&lt;/div&gt;&lt;div&gt;Title&amp;nbsp;&lt;br&gt;&lt;div&gt;&lt;br&gt;&lt;/div&gt;&lt;/div&gt;" style="text;strokeColor=none;fillColor=none;align=left;verticalAlign=top;spacingLeft=4;spacingRight=4;overflow=hidden;rotatable=0;points=[[0,0.5],[1,0.5]];portConstraint=eastwest;whiteSpace=wrap;html=1;" parent="7D-WIvyN03_g86bMiqR9-44" vertex="1">
          <mxGeometry y="26" width="160" height="54" as="geometry" />
        </mxCell>
        <mxCell id="7D-WIvyN03_g86bMiqR9-46" value="" style="line;strokeWidth=1;fillColor=none;align=left;verticalAlign=middle;spacingTop=-1;spacingLeft=3;spacingRight=3;rotatable=0;labelPosition=right;points=[];portConstraint=eastwest;strokeColor=inherit;" parent="7D-WIvyN03_g86bMiqR9-44" vertex="1">
          <mxGeometry y="80" width="160" height="8" as="geometry" />
        </mxCell>
        <mxCell id="7D-WIvyN03_g86bMiqR9-47" value="setQuestionnairieId()&lt;div&gt;getQuestionnairieId()&lt;/div&gt;&lt;div&gt;setType()&lt;/div&gt;&lt;div&gt;getType()&lt;/div&gt;&lt;div&gt;setTitle()&lt;/div&gt;&lt;div&gt;getTitle()&lt;br&gt;Add&lt;span style=&quot;text-align: center;&quot;&gt;Questionnaire()&lt;br&gt;Get&lt;/span&gt;&lt;span style=&quot;text-align: center;&quot;&gt;Questionnaire()&lt;/span&gt;&lt;/div&gt;" style="text;strokeColor=none;fillColor=none;align=left;verticalAlign=top;spacingLeft=4;spacingRight=4;overflow=hidden;rotatable=0;points=[[0,0.5],[1,0.5]];portConstraint=eastwest;whiteSpace=wrap;html=1;" parent="7D-WIvyN03_g86bMiqR9-44" vertex="1">
          <mxGeometry y="88" width="160" height="122" as="geometry" />
        </mxCell>
        <mxCell id="7D-WIvyN03_g86bMiqR9-48" value="EvalQuestion" style="swimlane;fontStyle=1;align=center;verticalAlign=top;childLayout=stackLayout;horizontal=1;startSize=26;horizontalStack=0;resizeParent=1;resizeParentMax=0;resizeLast=0;collapsible=1;marginBottom=0;whiteSpace=wrap;html=1;" parent="1" vertex="1">
          <mxGeometry x="604" y="80" width="160" height="160" as="geometry" />
        </mxCell>
        <mxCell id="7D-WIvyN03_g86bMiqR9-49" value="QuestionId&amp;nbsp;&lt;div&gt;Text&amp;nbsp;&lt;/div&gt;" style="text;strokeColor=none;fillColor=none;align=left;verticalAlign=top;spacingLeft=4;spacingRight=4;overflow=hidden;rotatable=0;points=[[0,0.5],[1,0.5]];portConstraint=eastwest;whiteSpace=wrap;html=1;" parent="7D-WIvyN03_g86bMiqR9-48" vertex="1">
          <mxGeometry y="26" width="160" height="34" as="geometry" />
        </mxCell>
        <mxCell id="7D-WIvyN03_g86bMiqR9-50" value="" style="line;strokeWidth=1;fillColor=none;align=left;verticalAlign=middle;spacingTop=-1;spacingLeft=3;spacingRight=3;rotatable=0;labelPosition=right;points=[];portConstraint=eastwest;strokeColor=inherit;" parent="7D-WIvyN03_g86bMiqR9-48" vertex="1">
          <mxGeometry y="60" width="160" height="8" as="geometry" />
        </mxCell>
        <mxCell id="7D-WIvyN03_g86bMiqR9-51" value="setQuestionId()&lt;div&gt;getQuestionId()&lt;br&gt;setText()&lt;br&gt;getText()&lt;br&gt;AddQuestion()&lt;br&gt;GetQuestion()&lt;/div&gt;" style="text;strokeColor=none;fillColor=none;align=left;verticalAlign=top;spacingLeft=4;spacingRight=4;overflow=hidden;rotatable=0;points=[[0,0.5],[1,0.5]];portConstraint=eastwest;whiteSpace=wrap;html=1;" parent="7D-WIvyN03_g86bMiqR9-48" vertex="1">
          <mxGeometry y="68" width="160" height="92" as="geometry" />
        </mxCell>
        <mxCell id="7D-WIvyN03_g86bMiqR9-52" value="QuestionResponse" style="swimlane;fontStyle=1;align=center;verticalAlign=top;childLayout=stackLayout;horizontal=1;startSize=26;horizontalStack=0;resizeParent=1;resizeParentMax=0;resizeLast=0;collapsible=1;marginBottom=0;whiteSpace=wrap;html=1;" parent="1" vertex="1">
          <mxGeometry x="667" y="271" width="160" height="180" as="geometry" />
        </mxCell>
        <mxCell id="7D-WIvyN03_g86bMiqR9-53" value="ResponseId&amp;nbsp;&lt;div&gt;Rating&amp;nbsp;&lt;/div&gt;" style="text;strokeColor=none;fillColor=none;align=left;verticalAlign=top;spacingLeft=4;spacingRight=4;overflow=hidden;rotatable=0;points=[[0,0.5],[1,0.5]];portConstraint=eastwest;whiteSpace=wrap;html=1;" parent="7D-WIvyN03_g86bMiqR9-52" vertex="1">
          <mxGeometry y="26" width="160" height="44" as="geometry" />
        </mxCell>
        <mxCell id="7D-WIvyN03_g86bMiqR9-54" value="" style="line;strokeWidth=1;fillColor=none;align=left;verticalAlign=middle;spacingTop=-1;spacingLeft=3;spacingRight=3;rotatable=0;labelPosition=right;points=[];portConstraint=eastwest;strokeColor=inherit;" parent="7D-WIvyN03_g86bMiqR9-52" vertex="1">
          <mxGeometry y="70" width="160" height="8" as="geometry" />
        </mxCell>
        <mxCell id="7D-WIvyN03_g86bMiqR9-55" value="setResonseId()&lt;br&gt;getResponseId()&lt;br&gt;setRating()&lt;br&gt;getRating()&lt;br&gt;AddResponse()&lt;br&gt;GetResponse()" style="text;strokeColor=none;fillColor=none;align=left;verticalAlign=top;spacingLeft=4;spacingRight=4;overflow=hidden;rotatable=0;points=[[0,0.5],[1,0.5]];portConstraint=eastwest;whiteSpace=wrap;html=1;" parent="7D-WIvyN03_g86bMiqR9-52" vertex="1">
          <mxGeometry y="78" width="160" height="102" as="geometry" />
        </mxCell>
        <mxCell id="7D-WIvyN03_g86bMiqR9-56" value="Admin" style="swimlane;fontStyle=1;align=center;verticalAlign=top;childLayout=stackLayout;horizontal=1;startSize=26;horizontalStack=0;resizeParent=1;resizeParentMax=0;resizeLast=0;collapsible=1;marginBottom=0;whiteSpace=wrap;html=1;" parent="1" vertex="1">
          <mxGeometry x="25" y="585" width="160" height="240" as="geometry" />
        </mxCell>
        <mxCell id="7D-WIvyN03_g86bMiqR9-57" value="UserId" style="text;strokeColor=none;fillColor=none;align=left;verticalAlign=top;spacingLeft=4;spacingRight=4;overflow=hidden;rotatable=0;points=[[0,0.5],[1,0.5]];portConstraint=eastwest;whiteSpace=wrap;html=1;" parent="7D-WIvyN03_g86bMiqR9-56" vertex="1">
          <mxGeometry y="26" width="160" height="26" as="geometry" />
        </mxCell>
        <mxCell id="7D-WIvyN03_g86bMiqR9-58" value="" style="line;strokeWidth=1;fillColor=none;align=left;verticalAlign=middle;spacingTop=-1;spacingLeft=3;spacingRight=3;rotatable=0;labelPosition=right;points=[];portConstraint=eastwest;strokeColor=inherit;" parent="7D-WIvyN03_g86bMiqR9-56" vertex="1">
          <mxGeometry y="52" width="160" height="8" as="geometry" />
        </mxCell>
        <mxCell id="7D-WIvyN03_g86bMiqR9-59" value="setUserId()&lt;div&gt;getUserId()&lt;br&gt;AddUser()&lt;br&gt;UpdateUser()&lt;br&gt;DeleteUser()&lt;br&gt;GetUsers()&lt;br&gt;AddCourse()&lt;/div&gt;&lt;div&gt;UpdateCourse()&lt;/div&gt;&lt;div&gt;DeleteCourse()&lt;/div&gt;&lt;div&gt;Add&lt;span style=&quot;text-align: center; background-color: transparent; color: light-dark(rgb(0, 0, 0), rgb(255, 255, 255));&quot;&gt;Questionnaire()&lt;/span&gt;&lt;/div&gt;&lt;div&gt;&lt;span style=&quot;text-align: center; background-color: transparent; color: light-dark(rgb(0, 0, 0), rgb(255, 255, 255));&quot;&gt;Update&lt;/span&gt;&lt;span style=&quot;text-align: center; background-color: transparent; color: light-dark(rgb(0, 0, 0), rgb(255, 255, 255));&quot;&gt;Questionnaire()&lt;/span&gt;&lt;/div&gt;&lt;div&gt;&lt;span style=&quot;text-align: center; background-color: transparent; color: light-dark(rgb(0, 0, 0), rgb(255, 255, 255));&quot;&gt;Delete&lt;/span&gt;&lt;span style=&quot;text-align: center; background-color: transparent; color: light-dark(rgb(0, 0, 0), rgb(255, 255, 255));&quot;&gt;Questionnaire()&lt;/span&gt;&lt;/div&gt;" style="text;strokeColor=none;fillColor=none;align=left;verticalAlign=top;spacingLeft=4;spacingRight=4;overflow=hidden;rotatable=0;points=[[0,0.5],[1,0.5]];portConstraint=eastwest;whiteSpace=wrap;html=1;" parent="7D-WIvyN03_g86bMiqR9-56" vertex="1">
          <mxGeometry y="60" width="160" height="180" as="geometry" />
        </mxCell>
        <mxCell id="7D-WIvyN03_g86bMiqR9-72" value="Questions" style="swimlane;fontStyle=1;align=center;verticalAlign=top;childLayout=stackLayout;horizontal=1;startSize=26;horizontalStack=0;resizeParent=1;resizeParentMax=0;resizeLast=0;collapsible=1;marginBottom=0;whiteSpace=wrap;html=1;" parent="1" vertex="1">
          <mxGeometry x="260" y="974" width="160" height="220" as="geometry" />
        </mxCell>
        <mxCell id="7D-WIvyN03_g86bMiqR9-73" value="QuestionId&amp;nbsp;&lt;div&gt;Text&amp;nbsp;&lt;/div&gt;&lt;div&gt;CorrectAnswer&amp;nbsp;&amp;nbsp;&lt;/div&gt;" style="text;strokeColor=none;fillColor=none;align=left;verticalAlign=top;spacingLeft=4;spacingRight=4;overflow=hidden;rotatable=0;points=[[0,0.5],[1,0.5]];portConstraint=eastwest;whiteSpace=wrap;html=1;" parent="7D-WIvyN03_g86bMiqR9-72" vertex="1">
          <mxGeometry y="26" width="160" height="54" as="geometry" />
        </mxCell>
        <mxCell id="7D-WIvyN03_g86bMiqR9-74" value="" style="line;strokeWidth=1;fillColor=none;align=left;verticalAlign=middle;spacingTop=-1;spacingLeft=3;spacingRight=3;rotatable=0;labelPosition=right;points=[];portConstraint=eastwest;strokeColor=inherit;" parent="7D-WIvyN03_g86bMiqR9-72" vertex="1">
          <mxGeometry y="80" width="160" height="8" as="geometry" />
        </mxCell>
        <mxCell id="7D-WIvyN03_g86bMiqR9-75" value="setQuestionId()&lt;div&gt;getQuestionId()&lt;/div&gt;&lt;div&gt;setText()&lt;br&gt;getText()&lt;br&gt;setCorrectAnswer()&lt;/div&gt;&lt;div&gt;getCorrectAnswer()&lt;/div&gt;&lt;div&gt;AddQuestion()&lt;div&gt;GetQuestion()&lt;/div&gt;&lt;/div&gt;" style="text;strokeColor=none;fillColor=none;align=left;verticalAlign=top;spacingLeft=4;spacingRight=4;overflow=hidden;rotatable=0;points=[[0,0.5],[1,0.5]];portConstraint=eastwest;whiteSpace=wrap;html=1;" parent="7D-WIvyN03_g86bMiqR9-72" vertex="1">
          <mxGeometry y="88" width="160" height="132" as="geometry" />
        </mxCell>
        <mxCell id="7D-WIvyN03_g86bMiqR9-81" value="DataBase" style="swimlane;fontStyle=1;align=center;verticalAlign=top;childLayout=stackLayout;horizontal=1;startSize=26;horizontalStack=0;resizeParent=1;resizeParentMax=0;resizeLast=0;collapsible=1;marginBottom=0;whiteSpace=wrap;html=1;" parent="1" vertex="1">
          <mxGeometry x="340" y="510" width="160" height="180" as="geometry" />
        </mxCell>
        <mxCell id="7D-WIvyN03_g86bMiqR9-82" value="DbHost&lt;div&gt;DbUser&lt;/div&gt;&lt;div&gt;DbPassword&lt;/div&gt;&lt;div&gt;DbName&lt;/div&gt;&lt;div&gt;Connection&lt;/div&gt;" style="text;strokeColor=none;fillColor=none;align=left;verticalAlign=top;spacingLeft=4;spacingRight=4;overflow=hidden;rotatable=0;points=[[0,0.5],[1,0.5]];portConstraint=eastwest;whiteSpace=wrap;html=1;" parent="7D-WIvyN03_g86bMiqR9-81" vertex="1">
          <mxGeometry y="26" width="160" height="74" as="geometry" />
        </mxCell>
        <mxCell id="7D-WIvyN03_g86bMiqR9-83" value="" style="line;strokeWidth=1;fillColor=none;align=left;verticalAlign=middle;spacingTop=-1;spacingLeft=3;spacingRight=3;rotatable=0;labelPosition=right;points=[];portConstraint=eastwest;strokeColor=inherit;" parent="7D-WIvyN03_g86bMiqR9-81" vertex="1">
          <mxGeometry y="100" width="160" height="8" as="geometry" />
        </mxCell>
        <mxCell id="7D-WIvyN03_g86bMiqR9-84" value="Select()&lt;div&gt;Insert()&lt;/div&gt;&lt;div&gt;Update()&lt;/div&gt;&lt;div&gt;Delete()&lt;br&gt;&lt;div&gt;&lt;br&gt;&lt;/div&gt;&lt;/div&gt;" style="text;strokeColor=none;fillColor=none;align=left;verticalAlign=top;spacingLeft=4;spacingRight=4;overflow=hidden;rotatable=0;points=[[0,0.5],[1,0.5]];portConstraint=eastwest;whiteSpace=wrap;html=1;" parent="7D-WIvyN03_g86bMiqR9-81" vertex="1">
          <mxGeometry y="108" width="160" height="72" as="geometry" />
        </mxCell>
        <mxCell id="OZqrW0Dyb2P8GLGFo4Aj-1" value="&lt;font style=&quot;font-size: 36px;&quot;&gt;&lt;b&gt;&lt;u&gt;IntermediateClass&lt;/u&gt;&lt;/b&gt;&lt;/font&gt;" style="text;html=1;align=center;verticalAlign=middle;resizable=0;points=[];autosize=1;strokeColor=none;fillColor=none;" parent="1" vertex="1">
          <mxGeometry x="274" y="4" width="330" height="60" as="geometry" />
        </mxCell>
        <mxCell id="GP7Mb6k3IyaMDFaFvlG6-8" value="User" style="swimlane;fontStyle=1;align=center;verticalAlign=top;childLayout=stackLayout;horizontal=1;startSize=26;horizontalStack=0;resizeParent=1;resizeParentMax=0;resizeLast=0;collapsible=1;marginBottom=0;whiteSpace=wrap;html=1;" vertex="1" parent="1">
          <mxGeometry x="200" y="185" width="160" height="308" as="geometry" />
        </mxCell>
        <mxCell id="GP7Mb6k3IyaMDFaFvlG6-9" value="&lt;div&gt;Id&lt;/div&gt;Name&lt;div&gt;UserName&lt;/div&gt;&lt;div&gt;&lt;span style=&quot;background-color: transparent; color: light-dark(rgb(0, 0, 0), rgb(255, 255, 255));&quot;&gt;Email&lt;/span&gt;&lt;/div&gt;&lt;div&gt;Password&amp;nbsp;&lt;/div&gt;&lt;div&gt;RoleName&lt;br&gt;&lt;div&gt;&lt;br&gt;&lt;/div&gt;&lt;/div&gt;" style="text;strokeColor=none;fillColor=none;align=left;verticalAlign=top;spacingLeft=4;spacingRight=4;overflow=hidden;rotatable=0;points=[[0,0.5],[1,0.5]];portConstraint=eastwest;whiteSpace=wrap;html=1;" vertex="1" parent="GP7Mb6k3IyaMDFaFvlG6-8">
          <mxGeometry y="26" width="160" height="94" as="geometry" />
        </mxCell>
        <mxCell id="GP7Mb6k3IyaMDFaFvlG6-10" value="" style="line;strokeWidth=1;fillColor=none;align=left;verticalAlign=middle;spacingTop=-1;spacingLeft=3;spacingRight=3;rotatable=0;labelPosition=right;points=[];portConstraint=eastwest;strokeColor=inherit;" vertex="1" parent="GP7Mb6k3IyaMDFaFvlG6-8">
          <mxGeometry y="120" width="160" height="8" as="geometry" />
        </mxCell>
        <mxCell id="GP7Mb6k3IyaMDFaFvlG6-11" value="setId()&lt;div&gt;getId()&lt;/div&gt;&lt;div&gt;setName()&lt;/div&gt;&lt;div&gt;getName()&lt;/div&gt;&lt;div&gt;setUserName()&lt;/div&gt;&lt;div&gt;getUserName()&lt;/div&gt;&lt;div&gt;setEmail()&lt;/div&gt;&lt;div&gt;getEmail()&lt;/div&gt;&lt;div&gt;setPassword()&lt;/div&gt;&lt;div&gt;getPassword()&lt;/div&gt;&lt;div&gt;setRoleName()&lt;/div&gt;&lt;div&gt;getRoleName()&lt;/div&gt;&lt;div&gt;&lt;br style=&quot;text-align: center; text-wrap-mode: nowrap;&quot;&gt;&lt;/div&gt;" style="text;strokeColor=none;fillColor=none;align=left;verticalAlign=top;spacingLeft=4;spacingRight=4;overflow=hidden;rotatable=0;points=[[0,0.5],[1,0.5]];portConstraint=eastwest;whiteSpace=wrap;html=1;" vertex="1" parent="GP7Mb6k3IyaMDFaFvlG6-8">
          <mxGeometry y="128" width="160" height="180" as="geometry" />
        </mxCell>
      </root>
    </mxGraphModel>
  </diagram>
  <diagram id="f8HjrBAdIlFRKsAJ9kfr" name="FinalVersion">
    <mxGraphModel dx="1281" dy="574" grid="1" gridSize="10" guides="1" tooltips="1" connect="1" arrows="1" fold="1" page="1" pageScale="1" pageWidth="827" pageHeight="1169" math="0" shadow="0">
      <root>
        <mxCell id="0" />
        <mxCell id="1" parent="0" />
        <mxCell id="Ewzypt1cZrCb-WRkB7J7-1" value="User" style="swimlane;fontStyle=1;align=center;verticalAlign=top;childLayout=stackLayout;horizontal=1;startSize=26;horizontalStack=0;resizeParent=1;resizeParentMax=0;resizeLast=0;collapsible=1;marginBottom=0;whiteSpace=wrap;html=1;" parent="1" vertex="1">
          <mxGeometry x="259" y="206" width="160" height="126" as="geometry" />
        </mxCell>
        <mxCell id="Ewzypt1cZrCb-WRkB7J7-2" value="&lt;div&gt;- Id: int&lt;/div&gt;- Name: string&lt;div&gt;- UserName: string&lt;/div&gt;&lt;div&gt;- Email: string&lt;/div&gt;&lt;div&gt;- Password: string&lt;/div&gt;&lt;div&gt;- RoleName: string&lt;br&gt;&lt;div&gt;&lt;br&gt;&lt;/div&gt;&lt;/div&gt;" style="text;strokeColor=none;fillColor=none;align=left;verticalAlign=top;spacingLeft=4;spacingRight=4;overflow=hidden;rotatable=0;points=[[0,0.5],[1,0.5]];portConstraint=eastwest;whiteSpace=wrap;html=1;" parent="Ewzypt1cZrCb-WRkB7J7-1" vertex="1">
          <mxGeometry y="26" width="160" height="94" as="geometry" />
        </mxCell>
        <mxCell id="Ewzypt1cZrCb-WRkB7J7-3" value="" style="line;strokeWidth=1;fillColor=none;align=left;verticalAlign=middle;spacingTop=-1;spacingLeft=3;spacingRight=3;rotatable=0;labelPosition=right;points=[];portConstraint=eastwest;strokeColor=inherit;" parent="Ewzypt1cZrCb-WRkB7J7-1" vertex="1">
          <mxGeometry y="120" width="160" height="6" as="geometry" />
        </mxCell>
        <mxCell id="Ewzypt1cZrCb-WRkB7J7-4" value="Student" style="swimlane;fontStyle=1;align=center;verticalAlign=top;childLayout=stackLayout;horizontal=1;startSize=26;horizontalStack=0;resizeParent=1;resizeParentMax=0;resizeLast=0;collapsible=1;marginBottom=0;whiteSpace=wrap;html=1;" parent="1" vertex="1">
          <mxGeometry x="520" y="329" width="200" height="120" as="geometry">
            <mxRectangle x="190" y="400" width="80" height="30" as="alternateBounds" />
          </mxGeometry>
        </mxCell>
        <mxCell id="Ewzypt1cZrCb-WRkB7J7-5" value="- UserId: int&lt;div&gt;- /age : int&amp;nbsp;&lt;/div&gt;" style="text;strokeColor=none;fillColor=none;align=left;verticalAlign=top;spacingLeft=4;spacingRight=4;overflow=hidden;rotatable=0;points=[[0,0.5],[1,0.5]];portConstraint=eastwest;whiteSpace=wrap;html=1;" parent="Ewzypt1cZrCb-WRkB7J7-4" vertex="1">
          <mxGeometry y="26" width="200" height="34" as="geometry" />
        </mxCell>
        <mxCell id="Ewzypt1cZrCb-WRkB7J7-6" value="" style="line;strokeWidth=1;fillColor=none;align=left;verticalAlign=middle;spacingTop=-1;spacingLeft=3;spacingRight=3;rotatable=0;labelPosition=right;points=[];portConstraint=eastwest;strokeColor=inherit;" parent="Ewzypt1cZrCb-WRkB7J7-4" vertex="1">
          <mxGeometry y="60" width="200" height="8" as="geometry" />
        </mxCell>
        <mxCell id="Ewzypt1cZrCb-WRkB7J7-7" value="+ RegisterCourse(course : Course)&lt;div&gt;+ GiveEvaluation(Eval : Evaluation)&lt;br&gt;&lt;/div&gt;&lt;div&gt;+ GetGrades()&lt;/div&gt;&lt;div&gt;&lt;br&gt;&lt;/div&gt;" style="text;strokeColor=none;fillColor=none;align=left;verticalAlign=top;spacingLeft=4;spacingRight=4;overflow=hidden;rotatable=0;points=[[0,0.5],[1,0.5]];portConstraint=eastwest;whiteSpace=wrap;html=1;" parent="Ewzypt1cZrCb-WRkB7J7-4" vertex="1">
          <mxGeometry y="68" width="200" height="52" as="geometry" />
        </mxCell>
        <mxCell id="Ewzypt1cZrCb-WRkB7J7-8" value="Faculty member" style="swimlane;fontStyle=1;align=center;verticalAlign=top;childLayout=stackLayout;horizontal=1;startSize=26;horizontalStack=0;resizeParent=1;resizeParentMax=0;resizeLast=0;collapsible=1;marginBottom=0;whiteSpace=wrap;html=1;" parent="1" vertex="1">
          <mxGeometry x="89" y="540" width="180" height="140" as="geometry" />
        </mxCell>
        <mxCell id="Ewzypt1cZrCb-WRkB7J7-9" value="- UserId: int&lt;div&gt;- SsNo : int {Unique,readonly}&lt;/div&gt;" style="text;strokeColor=none;fillColor=none;align=left;verticalAlign=top;spacingLeft=4;spacingRight=4;overflow=hidden;rotatable=0;points=[[0,0.5],[1,0.5]];portConstraint=eastwest;whiteSpace=wrap;html=1;" parent="Ewzypt1cZrCb-WRkB7J7-8" vertex="1">
          <mxGeometry y="26" width="180" height="34" as="geometry" />
        </mxCell>
        <mxCell id="Ewzypt1cZrCb-WRkB7J7-10" value="" style="line;strokeWidth=1;fillColor=none;align=left;verticalAlign=middle;spacingTop=-1;spacingLeft=3;spacingRight=3;rotatable=0;labelPosition=right;points=[];portConstraint=eastwest;strokeColor=inherit;" parent="Ewzypt1cZrCb-WRkB7J7-8" vertex="1">
          <mxGeometry y="60" width="180" height="8" as="geometry" />
        </mxCell>
        <mxCell id="Ewzypt1cZrCb-WRkB7J7-11" value="+ AddCourse(crs : Course)&lt;div&gt;+ UpdateCourse(crs : Course)&lt;/div&gt;&lt;div&gt;+ DeleteCourse(CrsId : int)&lt;/div&gt;&lt;div&gt;+ AddExam(exam : Exam)&lt;/div&gt;&lt;div&gt;&lt;br&gt;&lt;/div&gt;" style="text;strokeColor=none;fillColor=none;align=left;verticalAlign=top;spacingLeft=4;spacingRight=4;overflow=hidden;rotatable=0;points=[[0,0.5],[1,0.5]];portConstraint=eastwest;whiteSpace=wrap;html=1;" parent="Ewzypt1cZrCb-WRkB7J7-8" vertex="1">
          <mxGeometry y="68" width="180" height="72" as="geometry" />
        </mxCell>
        <mxCell id="Ewzypt1cZrCb-WRkB7J7-12" value="Course" style="swimlane;fontStyle=1;align=center;verticalAlign=top;childLayout=stackLayout;horizontal=1;startSize=26;horizontalStack=0;resizeParent=1;resizeParentMax=0;resizeLast=0;collapsible=1;marginBottom=0;whiteSpace=wrap;html=1;" parent="1" vertex="1">
          <mxGeometry x="369" y="550" width="200" height="114" as="geometry" />
        </mxCell>
        <mxCell id="Ewzypt1cZrCb-WRkB7J7-13" value="- CrsId : int&lt;div&gt;- CrsName : string&lt;/div&gt;&lt;div&gt;- Description : string&lt;/div&gt;" style="text;strokeColor=none;fillColor=none;align=left;verticalAlign=top;spacingLeft=4;spacingRight=4;overflow=hidden;rotatable=0;points=[[0,0.5],[1,0.5]];portConstraint=eastwest;whiteSpace=wrap;html=1;" parent="Ewzypt1cZrCb-WRkB7J7-12" vertex="1">
          <mxGeometry y="26" width="200" height="54" as="geometry" />
        </mxCell>
        <mxCell id="Ewzypt1cZrCb-WRkB7J7-14" value="" style="line;strokeWidth=1;fillColor=none;align=left;verticalAlign=middle;spacingTop=-1;spacingLeft=3;spacingRight=3;rotatable=0;labelPosition=right;points=[];portConstraint=eastwest;strokeColor=inherit;" parent="Ewzypt1cZrCb-WRkB7J7-12" vertex="1">
          <mxGeometry y="80" width="200" height="8" as="geometry" />
        </mxCell>
        <mxCell id="Ewzypt1cZrCb-WRkB7J7-15" value="+ ShowCourses() : List&amp;lt;Courses&amp;gt;" style="text;strokeColor=none;fillColor=none;align=left;verticalAlign=top;spacingLeft=4;spacingRight=4;overflow=hidden;rotatable=0;points=[[0,0.5],[1,0.5]];portConstraint=eastwest;whiteSpace=wrap;html=1;" parent="Ewzypt1cZrCb-WRkB7J7-12" vertex="1">
          <mxGeometry y="88" width="200" height="26" as="geometry" />
        </mxCell>
        <mxCell id="Ewzypt1cZrCb-WRkB7J7-16" value="CourseRegistration" style="swimlane;fontStyle=1;align=center;verticalAlign=top;childLayout=stackLayout;horizontal=1;startSize=26;horizontalStack=0;resizeParent=1;resizeParentMax=0;resizeLast=0;collapsible=1;marginBottom=0;whiteSpace=wrap;html=1;" parent="1" vertex="1">
          <mxGeometry x="650" y="454" width="160" height="84" as="geometry">
            <mxRectangle x="710" y="356" width="140" height="30" as="alternateBounds" />
          </mxGeometry>
        </mxCell>
        <mxCell id="Ewzypt1cZrCb-WRkB7J7-17" value="- Grade : double[2...7]" style="text;strokeColor=none;fillColor=none;align=left;verticalAlign=top;spacingLeft=4;spacingRight=4;overflow=hidden;rotatable=0;points=[[0,0.5],[1,0.5]];portConstraint=eastwest;whiteSpace=wrap;html=1;" parent="Ewzypt1cZrCb-WRkB7J7-16" vertex="1">
          <mxGeometry y="26" width="160" height="24" as="geometry" />
        </mxCell>
        <mxCell id="Ewzypt1cZrCb-WRkB7J7-18" value="" style="line;strokeWidth=1;fillColor=none;align=left;verticalAlign=middle;spacingTop=-1;spacingLeft=3;spacingRight=3;rotatable=0;labelPosition=right;points=[];portConstraint=eastwest;strokeColor=inherit;" parent="Ewzypt1cZrCb-WRkB7J7-16" vertex="1">
          <mxGeometry y="50" width="160" height="8" as="geometry" />
        </mxCell>
        <mxCell id="Ewzypt1cZrCb-WRkB7J7-19" value="+ ShowGrades()&amp;nbsp;" style="text;strokeColor=none;fillColor=none;align=left;verticalAlign=top;spacingLeft=4;spacingRight=4;overflow=hidden;rotatable=0;points=[[0,0.5],[1,0.5]];portConstraint=eastwest;whiteSpace=wrap;html=1;" parent="Ewzypt1cZrCb-WRkB7J7-16" vertex="1">
          <mxGeometry y="58" width="160" height="26" as="geometry" />
        </mxCell>
        <mxCell id="Ewzypt1cZrCb-WRkB7J7-20" value="Schedule" style="swimlane;fontStyle=1;align=center;verticalAlign=top;childLayout=stackLayout;horizontal=1;startSize=26;horizontalStack=0;resizeParent=1;resizeParentMax=0;resizeLast=0;collapsible=1;marginBottom=0;whiteSpace=wrap;html=1;" parent="1" vertex="1">
          <mxGeometry x="252" y="700" width="258" height="130" as="geometry" />
        </mxCell>
        <mxCell id="Ewzypt1cZrCb-WRkB7J7-21" value="- scheId : int&lt;div&gt;- Date : date&lt;/div&gt;&lt;div&gt;- EventType : string&lt;/div&gt;" style="text;strokeColor=none;fillColor=none;align=left;verticalAlign=top;spacingLeft=4;spacingRight=4;overflow=hidden;rotatable=0;points=[[0,0.5],[1,0.5]];portConstraint=eastwest;whiteSpace=wrap;html=1;" parent="Ewzypt1cZrCb-WRkB7J7-20" vertex="1">
          <mxGeometry y="26" width="258" height="54" as="geometry" />
        </mxCell>
        <mxCell id="Ewzypt1cZrCb-WRkB7J7-22" value="" style="line;strokeWidth=1;fillColor=none;align=left;verticalAlign=middle;spacingTop=-1;spacingLeft=3;spacingRight=3;rotatable=0;labelPosition=right;points=[];portConstraint=eastwest;strokeColor=inherit;" parent="Ewzypt1cZrCb-WRkB7J7-20" vertex="1">
          <mxGeometry y="80" width="258" height="8" as="geometry" />
        </mxCell>
        <mxCell id="Ewzypt1cZrCb-WRkB7J7-23" value="+ AddSchedule(Date : date,EventType : string)&lt;br&gt;+ ShowSchedule() :&amp;nbsp;&lt;span style=&quot;text-align: center;&quot;&gt;Schedule&lt;/span&gt;" style="text;strokeColor=none;fillColor=none;align=left;verticalAlign=top;spacingLeft=4;spacingRight=4;overflow=hidden;rotatable=0;points=[[0,0.5],[1,0.5]];portConstraint=eastwest;whiteSpace=wrap;html=1;" parent="Ewzypt1cZrCb-WRkB7J7-20" vertex="1">
          <mxGeometry y="88" width="258" height="42" as="geometry" />
        </mxCell>
        <mxCell id="Ewzypt1cZrCb-WRkB7J7-24" value="CourseVideos" style="swimlane;fontStyle=1;align=center;verticalAlign=top;childLayout=stackLayout;horizontal=1;startSize=26;horizontalStack=0;resizeParent=1;resizeParentMax=0;resizeLast=0;collapsible=1;marginBottom=0;whiteSpace=wrap;html=1;" parent="1" vertex="1">
          <mxGeometry x="630" y="563" width="190" height="94" as="geometry" />
        </mxCell>
        <mxCell id="Ewzypt1cZrCb-WRkB7J7-25" value="&lt;div&gt;- VideoId : int&lt;div&gt;- VideoPath : string[1...*]{Unique}&amp;nbsp;&lt;/div&gt;&lt;div&gt;&lt;br&gt;&lt;/div&gt;&lt;/div&gt;" style="text;strokeColor=none;fillColor=none;align=left;verticalAlign=top;spacingLeft=4;spacingRight=4;overflow=hidden;rotatable=0;points=[[0,0.5],[1,0.5]];portConstraint=eastwest;whiteSpace=wrap;html=1;" parent="Ewzypt1cZrCb-WRkB7J7-24" vertex="1">
          <mxGeometry y="26" width="190" height="34" as="geometry" />
        </mxCell>
        <mxCell id="Ewzypt1cZrCb-WRkB7J7-26" value="" style="line;strokeWidth=1;fillColor=none;align=left;verticalAlign=middle;spacingTop=-1;spacingLeft=3;spacingRight=3;rotatable=0;labelPosition=right;points=[];portConstraint=eastwest;strokeColor=inherit;" parent="Ewzypt1cZrCb-WRkB7J7-24" vertex="1">
          <mxGeometry y="60" width="190" height="8" as="geometry" />
        </mxCell>
        <mxCell id="Ewzypt1cZrCb-WRkB7J7-27" value="+ AddVideo(Videopath : string)" style="text;strokeColor=none;fillColor=none;align=left;verticalAlign=top;spacingLeft=4;spacingRight=4;overflow=hidden;rotatable=0;points=[[0,0.5],[1,0.5]];portConstraint=eastwest;whiteSpace=wrap;html=1;" parent="Ewzypt1cZrCb-WRkB7J7-24" vertex="1">
          <mxGeometry y="68" width="190" height="26" as="geometry" />
        </mxCell>
        <mxCell id="Ewzypt1cZrCb-WRkB7J7-28" value="Exam" style="swimlane;fontStyle=1;align=center;verticalAlign=top;childLayout=stackLayout;horizontal=1;startSize=26;horizontalStack=0;resizeParent=1;resizeParentMax=0;resizeLast=0;collapsible=1;marginBottom=0;whiteSpace=wrap;html=1;" parent="1" vertex="1">
          <mxGeometry x="540" y="713" width="160" height="124" as="geometry" />
        </mxCell>
        <mxCell id="Ewzypt1cZrCb-WRkB7J7-29" value="&lt;div&gt;- ExamId : int&lt;div&gt;- Title : string&lt;/div&gt;&lt;div&gt;- Type : string&lt;/div&gt;&lt;div&gt;- Date :&amp;nbsp; date&lt;/div&gt;&lt;div&gt;&lt;br&gt;&lt;/div&gt;&lt;/div&gt;" style="text;strokeColor=none;fillColor=none;align=left;verticalAlign=top;spacingLeft=4;spacingRight=4;overflow=hidden;rotatable=0;points=[[0,0.5],[1,0.5]];portConstraint=eastwest;whiteSpace=wrap;html=1;" parent="Ewzypt1cZrCb-WRkB7J7-28" vertex="1">
          <mxGeometry y="26" width="160" height="64" as="geometry" />
        </mxCell>
        <mxCell id="Ewzypt1cZrCb-WRkB7J7-30" value="" style="line;strokeWidth=1;fillColor=none;align=left;verticalAlign=middle;spacingTop=-1;spacingLeft=3;spacingRight=3;rotatable=0;labelPosition=right;points=[];portConstraint=eastwest;strokeColor=inherit;" parent="Ewzypt1cZrCb-WRkB7J7-28" vertex="1">
          <mxGeometry y="90" width="160" height="8" as="geometry" />
        </mxCell>
        <mxCell id="Ewzypt1cZrCb-WRkB7J7-31" value="+ GetExam() : Exam" style="text;strokeColor=none;fillColor=none;align=left;verticalAlign=top;spacingLeft=4;spacingRight=4;overflow=hidden;rotatable=0;points=[[0,0.5],[1,0.5]];portConstraint=eastwest;whiteSpace=wrap;html=1;" parent="Ewzypt1cZrCb-WRkB7J7-28" vertex="1">
          <mxGeometry y="98" width="160" height="26" as="geometry" />
        </mxCell>
        <mxCell id="Ewzypt1cZrCb-WRkB7J7-32" value="StudentAnswers" style="swimlane;fontStyle=1;align=center;verticalAlign=top;childLayout=stackLayout;horizontal=1;startSize=26;horizontalStack=0;resizeParent=1;resizeParentMax=0;resizeLast=0;collapsible=1;marginBottom=0;whiteSpace=wrap;html=1;" parent="1" vertex="1">
          <mxGeometry x="272" y="880" width="190" height="130" as="geometry" />
        </mxCell>
        <mxCell id="Ewzypt1cZrCb-WRkB7J7-33" value="- AnswerId : int&lt;div&gt;- Answer : string&lt;/div&gt;&lt;div&gt;- IsCorrect : bool = false&lt;/div&gt;" style="text;strokeColor=none;fillColor=none;align=left;verticalAlign=top;spacingLeft=4;spacingRight=4;overflow=hidden;rotatable=0;points=[[0,0.5],[1,0.5]];portConstraint=eastwest;whiteSpace=wrap;html=1;" parent="Ewzypt1cZrCb-WRkB7J7-32" vertex="1">
          <mxGeometry y="26" width="190" height="54" as="geometry" />
        </mxCell>
        <mxCell id="Ewzypt1cZrCb-WRkB7J7-34" value="" style="line;strokeWidth=1;fillColor=none;align=left;verticalAlign=middle;spacingTop=-1;spacingLeft=3;spacingRight=3;rotatable=0;labelPosition=right;points=[];portConstraint=eastwest;strokeColor=inherit;" parent="Ewzypt1cZrCb-WRkB7J7-32" vertex="1">
          <mxGeometry y="80" width="190" height="8" as="geometry" />
        </mxCell>
        <mxCell id="Ewzypt1cZrCb-WRkB7J7-35" value="+ AddAnswer(answer : string)&lt;br&gt;+ GetAnswer() :&amp;nbsp; StudentAnswer" style="text;strokeColor=none;fillColor=none;align=left;verticalAlign=top;spacingLeft=4;spacingRight=4;overflow=hidden;rotatable=0;points=[[0,0.5],[1,0.5]];portConstraint=eastwest;whiteSpace=wrap;html=1;" parent="Ewzypt1cZrCb-WRkB7J7-32" vertex="1">
          <mxGeometry y="88" width="190" height="42" as="geometry" />
        </mxCell>
        <mxCell id="Ewzypt1cZrCb-WRkB7J7-36" value="Notification" style="swimlane;fontStyle=1;align=center;verticalAlign=top;childLayout=stackLayout;horizontal=1;startSize=26;horizontalStack=0;resizeParent=1;resizeParentMax=0;resizeLast=0;collapsible=1;marginBottom=0;whiteSpace=wrap;html=1;" parent="1" vertex="1">
          <mxGeometry y="153" width="190" height="140" as="geometry" />
        </mxCell>
        <mxCell id="Ewzypt1cZrCb-WRkB7J7-37" value="- NotifId : int&lt;div&gt;- Message : string&lt;/div&gt;&lt;div&gt;- IsRead : bool = false&lt;/div&gt;&lt;div&gt;- DateSent : Date&lt;/div&gt;" style="text;strokeColor=none;fillColor=none;align=left;verticalAlign=top;spacingLeft=4;spacingRight=4;overflow=hidden;rotatable=0;points=[[0,0.5],[1,0.5]];portConstraint=eastwest;whiteSpace=wrap;html=1;" parent="Ewzypt1cZrCb-WRkB7J7-36" vertex="1">
          <mxGeometry y="26" width="190" height="64" as="geometry" />
        </mxCell>
        <mxCell id="Ewzypt1cZrCb-WRkB7J7-38" value="" style="line;strokeWidth=1;fillColor=none;align=left;verticalAlign=middle;spacingTop=-1;spacingLeft=3;spacingRight=3;rotatable=0;labelPosition=right;points=[];portConstraint=eastwest;strokeColor=inherit;" parent="Ewzypt1cZrCb-WRkB7J7-36" vertex="1">
          <mxGeometry y="90" width="190" height="8" as="geometry" />
        </mxCell>
        <mxCell id="Ewzypt1cZrCb-WRkB7J7-39" value="+ SendNotification() : Notification&lt;br&gt;+ MarkAsRead() : bool" style="text;strokeColor=none;fillColor=none;align=left;verticalAlign=top;spacingLeft=4;spacingRight=4;overflow=hidden;rotatable=0;points=[[0,0.5],[1,0.5]];portConstraint=eastwest;whiteSpace=wrap;html=1;" parent="Ewzypt1cZrCb-WRkB7J7-36" vertex="1">
          <mxGeometry y="98" width="190" height="42" as="geometry" />
        </mxCell>
        <mxCell id="Ewzypt1cZrCb-WRkB7J7-40" value="Evaluation" style="swimlane;fontStyle=1;align=center;verticalAlign=top;childLayout=stackLayout;horizontal=1;startSize=26;horizontalStack=0;resizeParent=1;resizeParentMax=0;resizeLast=0;collapsible=1;marginBottom=0;whiteSpace=wrap;html=1;" parent="1" vertex="1">
          <mxGeometry x="46" y="23" width="180" height="114" as="geometry" />
        </mxCell>
        <mxCell id="Ewzypt1cZrCb-WRkB7J7-41" value="- EvaluationId : int&lt;div&gt;- Date : date&lt;/div&gt;&lt;div&gt;- comment : string&lt;/div&gt;" style="text;strokeColor=none;fillColor=none;align=left;verticalAlign=top;spacingLeft=4;spacingRight=4;overflow=hidden;rotatable=0;points=[[0,0.5],[1,0.5]];portConstraint=eastwest;whiteSpace=wrap;html=1;" parent="Ewzypt1cZrCb-WRkB7J7-40" vertex="1">
          <mxGeometry y="26" width="180" height="54" as="geometry" />
        </mxCell>
        <mxCell id="Ewzypt1cZrCb-WRkB7J7-42" value="" style="line;strokeWidth=1;fillColor=none;align=left;verticalAlign=middle;spacingTop=-1;spacingLeft=3;spacingRight=3;rotatable=0;labelPosition=right;points=[];portConstraint=eastwest;strokeColor=inherit;" parent="Ewzypt1cZrCb-WRkB7J7-40" vertex="1">
          <mxGeometry y="80" width="180" height="8" as="geometry" />
        </mxCell>
        <mxCell id="Ewzypt1cZrCb-WRkB7J7-43" value="+ Get&lt;span style=&quot;text-align: center;&quot;&gt;Evaluations&lt;/span&gt;&lt;span style=&quot;font-weight: 700; text-align: center;&quot;&gt;() : &lt;/span&gt;&lt;span style=&quot;text-align: center;&quot;&gt;Evaluation&lt;/span&gt;" style="text;strokeColor=none;fillColor=none;align=left;verticalAlign=top;spacingLeft=4;spacingRight=4;overflow=hidden;rotatable=0;points=[[0,0.5],[1,0.5]];portConstraint=eastwest;whiteSpace=wrap;html=1;" parent="Ewzypt1cZrCb-WRkB7J7-40" vertex="1">
          <mxGeometry y="88" width="180" height="26" as="geometry" />
        </mxCell>
        <mxCell id="Ewzypt1cZrCb-WRkB7J7-44" value="Questionnaire" style="swimlane;fontStyle=1;align=center;verticalAlign=top;childLayout=stackLayout;horizontal=1;startSize=26;horizontalStack=0;resizeParent=1;resizeParentMax=0;resizeLast=0;collapsible=1;marginBottom=0;whiteSpace=wrap;html=1;" parent="1" vertex="1">
          <mxGeometry x="332" y="60" width="240" height="130" as="geometry" />
        </mxCell>
        <mxCell id="Ewzypt1cZrCb-WRkB7J7-45" value="&lt;div&gt;&lt;div&gt;-&amp;nbsp;QuestionnaireId : int&lt;div&gt;- Type : string&lt;/div&gt;&lt;div&gt;- Title : string&lt;br&gt;&lt;div&gt;&lt;br&gt;&lt;/div&gt;&lt;/div&gt;&lt;/div&gt;&lt;/div&gt;" style="text;strokeColor=none;fillColor=none;align=left;verticalAlign=top;spacingLeft=4;spacingRight=4;overflow=hidden;rotatable=0;points=[[0,0.5],[1,0.5]];portConstraint=eastwest;whiteSpace=wrap;html=1;" parent="Ewzypt1cZrCb-WRkB7J7-44" vertex="1">
          <mxGeometry y="26" width="240" height="54" as="geometry" />
        </mxCell>
        <mxCell id="Ewzypt1cZrCb-WRkB7J7-46" value="" style="line;strokeWidth=1;fillColor=none;align=left;verticalAlign=middle;spacingTop=-1;spacingLeft=3;spacingRight=3;rotatable=0;labelPosition=right;points=[];portConstraint=eastwest;strokeColor=inherit;" parent="Ewzypt1cZrCb-WRkB7J7-44" vertex="1">
          <mxGeometry y="80" width="240" height="8" as="geometry" />
        </mxCell>
        <mxCell id="Ewzypt1cZrCb-WRkB7J7-47" value="+ Add&lt;span style=&quot;text-align: center;&quot;&gt;Questionnaire(type string,title string)&lt;br&gt;+ Get&lt;/span&gt;&lt;span style=&quot;text-align: center;&quot;&gt;Questionnaire() :&amp;nbsp;&lt;/span&gt;&lt;span style=&quot;text-align: center;&quot;&gt;Questionnaire&lt;/span&gt;&lt;span style=&quot;text-align: center;&quot;&gt;&amp;nbsp;&lt;/span&gt;" style="text;strokeColor=none;fillColor=none;align=left;verticalAlign=top;spacingLeft=4;spacingRight=4;overflow=hidden;rotatable=0;points=[[0,0.5],[1,0.5]];portConstraint=eastwest;whiteSpace=wrap;html=1;" parent="Ewzypt1cZrCb-WRkB7J7-44" vertex="1">
          <mxGeometry y="88" width="240" height="42" as="geometry" />
        </mxCell>
        <mxCell id="Ewzypt1cZrCb-WRkB7J7-48" value="EvalQuestion" style="swimlane;fontStyle=1;align=center;verticalAlign=top;childLayout=stackLayout;horizontal=1;startSize=26;horizontalStack=0;resizeParent=1;resizeParentMax=0;resizeLast=0;collapsible=1;marginBottom=0;whiteSpace=wrap;html=1;" parent="1" vertex="1">
          <mxGeometry x="646" y="81" width="180" height="110" as="geometry" />
        </mxCell>
        <mxCell id="Ewzypt1cZrCb-WRkB7J7-49" value="- QuestionId : int&lt;div&gt;- Text : string&amp;nbsp;&amp;nbsp;&lt;/div&gt;" style="text;strokeColor=none;fillColor=none;align=left;verticalAlign=top;spacingLeft=4;spacingRight=4;overflow=hidden;rotatable=0;points=[[0,0.5],[1,0.5]];portConstraint=eastwest;whiteSpace=wrap;html=1;" parent="Ewzypt1cZrCb-WRkB7J7-48" vertex="1">
          <mxGeometry y="26" width="180" height="34" as="geometry" />
        </mxCell>
        <mxCell id="Ewzypt1cZrCb-WRkB7J7-50" value="" style="line;strokeWidth=1;fillColor=none;align=left;verticalAlign=middle;spacingTop=-1;spacingLeft=3;spacingRight=3;rotatable=0;labelPosition=right;points=[];portConstraint=eastwest;strokeColor=inherit;" parent="Ewzypt1cZrCb-WRkB7J7-48" vertex="1">
          <mxGeometry y="60" width="180" height="8" as="geometry" />
        </mxCell>
        <mxCell id="Ewzypt1cZrCb-WRkB7J7-51" value="+ AddQuestion(text : string)&lt;br&gt;+ GetQuestion() :&amp;nbsp;&lt;span style=&quot;text-align: center;&quot;&gt;EvalQuestion&lt;/span&gt;" style="text;strokeColor=none;fillColor=none;align=left;verticalAlign=top;spacingLeft=4;spacingRight=4;overflow=hidden;rotatable=0;points=[[0,0.5],[1,0.5]];portConstraint=eastwest;whiteSpace=wrap;html=1;" parent="Ewzypt1cZrCb-WRkB7J7-48" vertex="1">
          <mxGeometry y="68" width="180" height="42" as="geometry" />
        </mxCell>
        <mxCell id="Ewzypt1cZrCb-WRkB7J7-52" value="QuestionResponse" style="swimlane;fontStyle=1;align=center;verticalAlign=top;childLayout=stackLayout;horizontal=1;startSize=26;horizontalStack=0;resizeParent=1;resizeParentMax=0;resizeLast=0;collapsible=1;marginBottom=0;whiteSpace=wrap;html=1;" parent="1" vertex="1">
          <mxGeometry x="550" y="200" width="230" height="120" as="geometry" />
        </mxCell>
        <mxCell id="Ewzypt1cZrCb-WRkB7J7-53" value="- ResponseId : int&lt;div&gt;- Rating : int [0...5]&lt;/div&gt;" style="text;strokeColor=none;fillColor=none;align=left;verticalAlign=top;spacingLeft=4;spacingRight=4;overflow=hidden;rotatable=0;points=[[0,0.5],[1,0.5]];portConstraint=eastwest;whiteSpace=wrap;html=1;" parent="Ewzypt1cZrCb-WRkB7J7-52" vertex="1">
          <mxGeometry y="26" width="230" height="44" as="geometry" />
        </mxCell>
        <mxCell id="Ewzypt1cZrCb-WRkB7J7-54" value="" style="line;strokeWidth=1;fillColor=none;align=left;verticalAlign=middle;spacingTop=-1;spacingLeft=3;spacingRight=3;rotatable=0;labelPosition=right;points=[];portConstraint=eastwest;strokeColor=inherit;" parent="Ewzypt1cZrCb-WRkB7J7-52" vertex="1">
          <mxGeometry y="70" width="230" height="8" as="geometry" />
        </mxCell>
        <mxCell id="Ewzypt1cZrCb-WRkB7J7-55" value="+ AddResponse(rating : int)&lt;br&gt;+ GetResponse() :&amp;nbsp;&lt;span style=&quot;text-align: center;&quot;&gt;QuestionResponse&lt;/span&gt;&amp;nbsp;" style="text;strokeColor=none;fillColor=none;align=left;verticalAlign=top;spacingLeft=4;spacingRight=4;overflow=hidden;rotatable=0;points=[[0,0.5],[1,0.5]];portConstraint=eastwest;whiteSpace=wrap;html=1;" parent="Ewzypt1cZrCb-WRkB7J7-52" vertex="1">
          <mxGeometry y="78" width="230" height="42" as="geometry" />
        </mxCell>
        <mxCell id="Ewzypt1cZrCb-WRkB7J7-56" value="Admin" style="swimlane;fontStyle=1;align=center;verticalAlign=top;childLayout=stackLayout;horizontal=1;startSize=26;horizontalStack=0;resizeParent=1;resizeParentMax=0;resizeLast=0;collapsible=1;marginBottom=0;whiteSpace=wrap;html=1;" parent="1" vertex="1">
          <mxGeometry x="10" y="380" width="220" height="150" as="geometry" />
        </mxCell>
        <mxCell id="Ewzypt1cZrCb-WRkB7J7-57" value="- UserId" style="text;strokeColor=none;fillColor=none;align=left;verticalAlign=top;spacingLeft=4;spacingRight=4;overflow=hidden;rotatable=0;points=[[0,0.5],[1,0.5]];portConstraint=eastwest;whiteSpace=wrap;html=1;" parent="Ewzypt1cZrCb-WRkB7J7-56" vertex="1">
          <mxGeometry y="26" width="220" height="26" as="geometry" />
        </mxCell>
        <mxCell id="Ewzypt1cZrCb-WRkB7J7-58" value="" style="line;strokeWidth=1;fillColor=none;align=left;verticalAlign=middle;spacingTop=-1;spacingLeft=3;spacingRight=3;rotatable=0;labelPosition=right;points=[];portConstraint=eastwest;strokeColor=inherit;" parent="Ewzypt1cZrCb-WRkB7J7-56" vertex="1">
          <mxGeometry y="52" width="220" height="8" as="geometry" />
        </mxCell>
        <mxCell id="Ewzypt1cZrCb-WRkB7J7-59" value="+ AddUser(user : User)&lt;br&gt;+ UpdateUser(userId : int)&amp;nbsp;&lt;br&gt;+ DeleteUser(UserId : int)&amp;nbsp;&lt;br&gt;+ GetUsers() : List&amp;lt;User&amp;gt;&lt;br&gt;+ AddEvaluation(ques : EvalQuestion)&amp;nbsp;" style="text;strokeColor=none;fillColor=none;align=left;verticalAlign=top;spacingLeft=4;spacingRight=4;overflow=hidden;rotatable=0;points=[[0,0.5],[1,0.5]];portConstraint=eastwest;whiteSpace=wrap;html=1;" parent="Ewzypt1cZrCb-WRkB7J7-56" vertex="1">
          <mxGeometry y="60" width="220" height="90" as="geometry" />
        </mxCell>
        <mxCell id="Ewzypt1cZrCb-WRkB7J7-60" value="" style="endArrow=open;startArrow=cross;endFill=0;startFill=0;endSize=8;startSize=10;html=1;rounded=0;exitX=0;exitY=0.001;exitDx=0;exitDy=0;exitPerimeter=0;" parent="1" source="Ewzypt1cZrCb-WRkB7J7-2" edge="1">
          <mxGeometry width="160" relative="1" as="geometry">
            <mxPoint x="239" y="279" as="sourcePoint" />
            <mxPoint x="190" y="232" as="targetPoint" />
          </mxGeometry>
        </mxCell>
        <mxCell id="Ewzypt1cZrCb-WRkB7J7-61" value="" style="endArrow=open;startArrow=cross;endFill=0;startFill=0;endSize=8;startSize=10;html=1;rounded=0;entryX=0.009;entryY=0.019;entryDx=0;entryDy=0;entryPerimeter=0;exitX=1.008;exitY=0.32;exitDx=0;exitDy=0;exitPerimeter=0;" parent="1" source="Ewzypt1cZrCb-WRkB7J7-9" target="Ewzypt1cZrCb-WRkB7J7-13" edge="1">
          <mxGeometry width="160" relative="1" as="geometry">
            <mxPoint x="356" y="520" as="sourcePoint" />
            <mxPoint x="460" y="530" as="targetPoint" />
          </mxGeometry>
        </mxCell>
        <mxCell id="Ewzypt1cZrCb-WRkB7J7-62" value="" style="endArrow=open;html=1;endSize=12;startArrow=diamondThin;startSize=14;startFill=1;edgeStyle=orthogonalEdgeStyle;align=left;verticalAlign=bottom;rounded=0;exitX=0.995;exitY=0.939;exitDx=0;exitDy=0;exitPerimeter=0;" parent="1" source="Ewzypt1cZrCb-WRkB7J7-13" target="Ewzypt1cZrCb-WRkB7J7-26" edge="1">
          <mxGeometry x="-1" y="3" relative="1" as="geometry">
            <mxPoint x="570" y="630" as="sourcePoint" />
            <mxPoint x="620" y="630" as="targetPoint" />
            <Array as="points" />
          </mxGeometry>
        </mxCell>
        <mxCell id="Ewzypt1cZrCb-WRkB7J7-63" value="" style="endArrow=none;html=1;edgeStyle=orthogonalEdgeStyle;rounded=0;entryX=1.001;entryY=0.058;entryDx=0;entryDy=0;entryPerimeter=0;exitX=0.33;exitY=1.002;exitDx=0;exitDy=0;exitPerimeter=0;" parent="1" source="Ewzypt1cZrCb-WRkB7J7-7" target="Ewzypt1cZrCb-WRkB7J7-12" edge="1">
          <mxGeometry relative="1" as="geometry">
            <mxPoint x="586" y="480.32001953125" as="sourcePoint" />
            <mxPoint x="560" y="540" as="targetPoint" />
            <Array as="points">
              <mxPoint x="586" y="560" />
              <mxPoint x="569" y="560" />
            </Array>
          </mxGeometry>
        </mxCell>
        <mxCell id="Ewzypt1cZrCb-WRkB7J7-64" value="" style="endArrow=block;dashed=1;endFill=0;endSize=12;html=1;rounded=0;entryX=0.001;entryY=0.765;entryDx=0;entryDy=0;entryPerimeter=0;" parent="1" target="Ewzypt1cZrCb-WRkB7J7-17" edge="1">
          <mxGeometry width="160" relative="1" as="geometry">
            <mxPoint x="590" y="498" as="sourcePoint" />
            <mxPoint x="610" y="400" as="targetPoint" />
          </mxGeometry>
        </mxCell>
        <mxCell id="Ewzypt1cZrCb-WRkB7J7-65" value="" style="endArrow=open;html=1;endSize=12;startArrow=diamondThin;startSize=14;startFill=1;edgeStyle=orthogonalEdgeStyle;align=left;verticalAlign=bottom;rounded=0;entryX=0.808;entryY=-0.014;entryDx=0;entryDy=0;entryPerimeter=0;" parent="1" source="Ewzypt1cZrCb-WRkB7J7-29" target="Ewzypt1cZrCb-WRkB7J7-70" edge="1">
          <mxGeometry x="-1" y="3" relative="1" as="geometry">
            <mxPoint x="730" y="750" as="sourcePoint" />
            <mxPoint x="760" y="840" as="targetPoint" />
            <Array as="points">
              <mxPoint x="718" y="776" />
              <mxPoint x="718" y="803" />
              <mxPoint x="718" y="803" />
            </Array>
          </mxGeometry>
        </mxCell>
        <mxCell id="Ewzypt1cZrCb-WRkB7J7-67" value="" style="endArrow=open;html=1;endSize=12;startArrow=diamondThin;startSize=14;startFill=1;edgeStyle=orthogonalEdgeStyle;align=left;verticalAlign=bottom;rounded=0;entryX=0.568;entryY=0;entryDx=0;entryDy=0;entryPerimeter=0;" parent="1" source="Ewzypt1cZrCb-WRkB7J7-70" target="Ewzypt1cZrCb-WRkB7J7-32" edge="1">
          <mxGeometry x="-1" y="3" relative="1" as="geometry">
            <mxPoint x="1020" y="670" as="sourcePoint" />
            <mxPoint x="380" y="860" as="targetPoint" />
            <Array as="points">
              <mxPoint x="635" y="860" />
              <mxPoint x="380" y="860" />
            </Array>
          </mxGeometry>
        </mxCell>
        <mxCell id="Ewzypt1cZrCb-WRkB7J7-68" value="" style="endArrow=open;startArrow=cross;endFill=0;startFill=0;endSize=8;startSize=10;html=1;rounded=0;entryX=0.838;entryY=0.997;entryDx=0;entryDy=0;entryPerimeter=0;exitX=0.265;exitY=0.002;exitDx=0;exitDy=0;exitPerimeter=0;" parent="1" source="Ewzypt1cZrCb-WRkB7J7-1" target="Ewzypt1cZrCb-WRkB7J7-43" edge="1">
          <mxGeometry width="160" relative="1" as="geometry">
            <mxPoint x="301.55999999999995" y="207.75600000000003" as="sourcePoint" />
            <mxPoint x="281.7599999999999" y="149.54599999999994" as="targetPoint" />
          </mxGeometry>
        </mxCell>
        <mxCell id="Ewzypt1cZrCb-WRkB7J7-69" value="" style="endArrow=open;html=1;endSize=12;startArrow=diamondThin;startSize=14;startFill=0;edgeStyle=orthogonalEdgeStyle;rounded=0;entryX=0;entryY=0.006;entryDx=0;entryDy=0;entryPerimeter=0;exitX=0.999;exitY=0.037;exitDx=0;exitDy=0;exitPerimeter=0;" parent="1" source="Ewzypt1cZrCb-WRkB7J7-47" target="Ewzypt1cZrCb-WRkB7J7-51" edge="1">
          <mxGeometry relative="1" as="geometry">
            <mxPoint x="600" y="160" as="sourcePoint" />
            <mxPoint x="660" y="150" as="targetPoint" />
            <Array as="points">
              <mxPoint x="610" y="150" />
            </Array>
          </mxGeometry>
        </mxCell>
        <mxCell id="Ewzypt1cZrCb-WRkB7J7-70" value="Questions" style="swimlane;fontStyle=1;align=center;verticalAlign=top;childLayout=stackLayout;horizontal=1;startSize=26;horizontalStack=0;resizeParent=1;resizeParentMax=0;resizeLast=0;collapsible=1;marginBottom=0;whiteSpace=wrap;html=1;" parent="1" vertex="1">
          <mxGeometry x="500" y="880" width="270" height="130" as="geometry" />
        </mxCell>
        <mxCell id="Ewzypt1cZrCb-WRkB7J7-71" value="- QuestionId : int&lt;div&gt;- Text : string&lt;/div&gt;&lt;div&gt;- CorrectAnswer : string&amp;nbsp;&lt;/div&gt;" style="text;strokeColor=none;fillColor=none;align=left;verticalAlign=top;spacingLeft=4;spacingRight=4;overflow=hidden;rotatable=0;points=[[0,0.5],[1,0.5]];portConstraint=eastwest;whiteSpace=wrap;html=1;" parent="Ewzypt1cZrCb-WRkB7J7-70" vertex="1">
          <mxGeometry y="26" width="270" height="54" as="geometry" />
        </mxCell>
        <mxCell id="Ewzypt1cZrCb-WRkB7J7-72" value="" style="line;strokeWidth=1;fillColor=none;align=left;verticalAlign=middle;spacingTop=-1;spacingLeft=3;spacingRight=3;rotatable=0;labelPosition=right;points=[];portConstraint=eastwest;strokeColor=inherit;" parent="Ewzypt1cZrCb-WRkB7J7-70" vertex="1">
          <mxGeometry y="80" width="270" height="8" as="geometry" />
        </mxCell>
        <mxCell id="Ewzypt1cZrCb-WRkB7J7-73" value="+ AddQuestion(text : string,CorrAnswer : string)&lt;div&gt;+ GetQuestion() : Question&amp;nbsp;&lt;/div&gt;" style="text;strokeColor=none;fillColor=none;align=left;verticalAlign=top;spacingLeft=4;spacingRight=4;overflow=hidden;rotatable=0;points=[[0,0.5],[1,0.5]];portConstraint=eastwest;whiteSpace=wrap;html=1;" parent="Ewzypt1cZrCb-WRkB7J7-70" vertex="1">
          <mxGeometry y="88" width="270" height="42" as="geometry" />
        </mxCell>
        <mxCell id="Ewzypt1cZrCb-WRkB7J7-74" value="" style="endArrow=open;startArrow=cross;endFill=0;startFill=0;endSize=8;startSize=10;html=1;rounded=0;exitX=0.889;exitY=0.98;exitDx=0;exitDy=0;exitPerimeter=0;entryX=0.999;entryY=0;entryDx=0;entryDy=0;entryPerimeter=0;" parent="1" source="Ewzypt1cZrCb-WRkB7J7-51" target="Ewzypt1cZrCb-WRkB7J7-53" edge="1">
          <mxGeometry width="160" relative="1" as="geometry">
            <mxPoint x="880" y="269" as="sourcePoint" />
            <mxPoint x="800" y="236" as="targetPoint" />
            <Array as="points" />
          </mxGeometry>
        </mxCell>
        <mxCell id="Ewzypt1cZrCb-WRkB7J7-76" value="Extends" style="endArrow=block;endSize=16;endFill=0;html=1;rounded=0;entryX=0;entryY=0.829;entryDx=0;entryDy=0;entryPerimeter=0;exitX=0.5;exitY=0;exitDx=0;exitDy=0;" parent="1" source="Ewzypt1cZrCb-WRkB7J7-56" target="Ewzypt1cZrCb-WRkB7J7-2" edge="1">
          <mxGeometry width="160" relative="1" as="geometry">
            <mxPoint x="70" y="310" as="sourcePoint" />
            <mxPoint x="238.03999999999996" y="310.302" as="targetPoint" />
            <Array as="points">
              <mxPoint x="120" y="310" />
            </Array>
          </mxGeometry>
        </mxCell>
        <mxCell id="Ewzypt1cZrCb-WRkB7J7-77" value="Extends" style="endArrow=block;endSize=16;endFill=0;html=1;rounded=0;entryX=1.005;entryY=0.259;entryDx=0;entryDy=0;entryPerimeter=0;exitX=0;exitY=0;exitDx=0;exitDy=0;" parent="1" source="Ewzypt1cZrCb-WRkB7J7-4" target="Ewzypt1cZrCb-WRkB7J7-2" edge="1">
          <mxGeometry width="160" relative="1" as="geometry">
            <mxPoint x="400" y="360" as="sourcePoint" />
            <mxPoint x="398.68000000000006" y="256.81600000000003" as="targetPoint" />
            <Array as="points">
              <mxPoint x="520" y="256" />
            </Array>
          </mxGeometry>
        </mxCell>
        <mxCell id="Ewzypt1cZrCb-WRkB7J7-78" value="Extends" style="endArrow=block;endSize=16;endFill=0;html=1;rounded=0;exitX=0.998;exitY=0.068;exitDx=0;exitDy=0;exitPerimeter=0;entryX=0.251;entryY=0.534;entryDx=0;entryDy=0;entryPerimeter=0;" parent="1" source="Ewzypt1cZrCb-WRkB7J7-8" target="Ewzypt1cZrCb-WRkB7J7-3" edge="1">
          <mxGeometry width="160" relative="1" as="geometry">
            <mxPoint x="294.81999999999994" y="537.34" as="sourcePoint" />
            <mxPoint x="295.1199999999999" y="329.73799999999994" as="targetPoint" />
            <Array as="points">
              <mxPoint x="300" y="550" />
            </Array>
          </mxGeometry>
        </mxCell>
        <mxCell id="Ewzypt1cZrCb-WRkB7J7-79" value="DataBase" style="swimlane;fontStyle=1;align=center;verticalAlign=top;childLayout=stackLayout;horizontal=1;startSize=26;horizontalStack=0;resizeParent=1;resizeParentMax=0;resizeLast=0;collapsible=1;marginBottom=0;whiteSpace=wrap;html=1;" parent="1" vertex="1">
          <mxGeometry x="340" y="344" width="160" height="180" as="geometry" />
        </mxCell>
        <mxCell id="Ewzypt1cZrCb-WRkB7J7-80" value="+ DbHost&lt;div&gt;+ DbUser&lt;/div&gt;&lt;div&gt;+ DbPassword&lt;/div&gt;&lt;div&gt;+ DbName&lt;/div&gt;&lt;div&gt;+Connection&lt;/div&gt;" style="text;strokeColor=none;fillColor=none;align=left;verticalAlign=top;spacingLeft=4;spacingRight=4;overflow=hidden;rotatable=0;points=[[0,0.5],[1,0.5]];portConstraint=eastwest;whiteSpace=wrap;html=1;" parent="Ewzypt1cZrCb-WRkB7J7-79" vertex="1">
          <mxGeometry y="26" width="160" height="74" as="geometry" />
        </mxCell>
        <mxCell id="Ewzypt1cZrCb-WRkB7J7-81" value="" style="line;strokeWidth=1;fillColor=none;align=left;verticalAlign=middle;spacingTop=-1;spacingLeft=3;spacingRight=3;rotatable=0;labelPosition=right;points=[];portConstraint=eastwest;strokeColor=inherit;" parent="Ewzypt1cZrCb-WRkB7J7-79" vertex="1">
          <mxGeometry y="100" width="160" height="8" as="geometry" />
        </mxCell>
        <mxCell id="Ewzypt1cZrCb-WRkB7J7-82" value="+ Select&amp;nbsp; (query : string)&lt;div&gt;+ Insert&amp;nbsp; &amp;nbsp;(query : string)&lt;/div&gt;&lt;div&gt;+ Update(query : string)&lt;/div&gt;&lt;div&gt;+ Delete(query&amp;nbsp; : string)&lt;br&gt;&lt;div&gt;&lt;br&gt;&lt;/div&gt;&lt;/div&gt;" style="text;strokeColor=none;fillColor=none;align=left;verticalAlign=top;spacingLeft=4;spacingRight=4;overflow=hidden;rotatable=0;points=[[0,0.5],[1,0.5]];portConstraint=eastwest;whiteSpace=wrap;html=1;" parent="Ewzypt1cZrCb-WRkB7J7-79" vertex="1">
          <mxGeometry y="108" width="160" height="72" as="geometry" />
        </mxCell>
        <mxCell id="Ewzypt1cZrCb-WRkB7J7-83" value="" style="endArrow=none;html=1;edgeStyle=orthogonalEdgeStyle;rounded=0;entryX=0.624;entryY=-0.004;entryDx=0;entryDy=0;entryPerimeter=0;exitX=0.999;exitY=0.706;exitDx=0;exitDy=0;exitPerimeter=0;" parent="1" source="Ewzypt1cZrCb-WRkB7J7-2" target="Ewzypt1cZrCb-WRkB7J7-79" edge="1">
          <mxGeometry relative="1" as="geometry">
            <mxPoint x="440" y="300" as="sourcePoint" />
            <mxPoint x="560" y="340" as="targetPoint" />
          </mxGeometry>
        </mxCell>
        <mxCell id="Ewzypt1cZrCb-WRkB7J7-84" value="" style="endArrow=open;startArrow=cross;endFill=0;startFill=0;endSize=8;startSize=10;html=1;rounded=0;exitX=0.336;exitY=1;exitDx=0;exitDy=0;exitPerimeter=0;entryX=0.911;entryY=0.587;entryDx=0;entryDy=0;entryPerimeter=0;" parent="1" source="Ewzypt1cZrCb-WRkB7J7-11" target="Ewzypt1cZrCb-WRkB7J7-98" edge="1">
          <mxGeometry width="160" relative="1" as="geometry">
            <mxPoint x="80" y="650" as="sourcePoint" />
            <mxPoint x="240" y="650" as="targetPoint" />
            <Array as="points">
              <mxPoint x="150" y="753" />
              <mxPoint x="230" y="753" />
            </Array>
          </mxGeometry>
        </mxCell>
        <mxCell id="Ewzypt1cZrCb-WRkB7J7-85" value="" style="endArrow=open;html=1;endSize=12;startArrow=diamondThin;startSize=14;startFill=1;edgeStyle=orthogonalEdgeStyle;align=left;verticalAlign=bottom;rounded=0;exitX=1;exitY=0.814;exitDx=0;exitDy=0;exitPerimeter=0;entryX=0.34;entryY=-0.001;entryDx=0;entryDy=0;entryPerimeter=0;" parent="1" source="Ewzypt1cZrCb-WRkB7J7-15" target="Ewzypt1cZrCb-WRkB7J7-28" edge="1">
          <mxGeometry x="-1" y="3" relative="1" as="geometry">
            <mxPoint x="593.8" y="694" as="sourcePoint" />
            <mxPoint x="594" y="710" as="targetPoint" />
            <Array as="points">
              <mxPoint x="594" y="659" />
              <mxPoint x="594" y="680" />
              <mxPoint x="594" y="680" />
            </Array>
          </mxGeometry>
        </mxCell>
        <mxCell id="Ewzypt1cZrCb-WRkB7J7-86" value="&lt;font style=&quot;font-size: 12px;&quot;&gt;[0...*]&lt;/font&gt;" style="text;html=1;align=center;verticalAlign=middle;resizable=0;points=[];autosize=1;strokeColor=none;fillColor=none;" parent="1" vertex="1">
          <mxGeometry x="179" y="206" width="50" height="30" as="geometry" />
        </mxCell>
        <mxCell id="Ewzypt1cZrCb-WRkB7J7-87" value="&lt;font style=&quot;font-size: 10px;&quot;&gt;Has&lt;/font&gt;" style="text;html=1;align=center;verticalAlign=middle;resizable=0;points=[];autosize=1;strokeColor=none;fillColor=none;" parent="1" vertex="1">
          <mxGeometry x="207" y="222" width="40" height="30" as="geometry" />
        </mxCell>
        <mxCell id="Ewzypt1cZrCb-WRkB7J7-88" value="&lt;font style=&quot;font-size: 9px;&quot;&gt;Create&lt;/font&gt;" style="text;html=1;align=center;verticalAlign=middle;resizable=0;points=[];autosize=1;strokeColor=none;fillColor=none;rotation=45;" parent="1" vertex="1">
          <mxGeometry x="255" y="155" width="50" height="30" as="geometry" />
        </mxCell>
        <mxCell id="Ewzypt1cZrCb-WRkB7J7-89" value="&lt;font style=&quot;font-size: 10px;&quot;&gt;[0...*]&lt;/font&gt;" style="text;html=1;align=center;verticalAlign=middle;resizable=0;points=[];autosize=1;strokeColor=none;fillColor=none;" parent="1" vertex="1">
          <mxGeometry x="290" y="180" width="50" height="30" as="geometry" />
        </mxCell>
        <mxCell id="Ewzypt1cZrCb-WRkB7J7-90" value="&lt;font style=&quot;font-size: 24px;&quot;&gt;*&lt;/font&gt;" style="text;html=1;align=center;verticalAlign=middle;resizable=0;points=[];autosize=1;strokeColor=none;fillColor=none;" parent="1" vertex="1">
          <mxGeometry x="560" y="540" width="30" height="40" as="geometry" />
        </mxCell>
        <mxCell id="Ewzypt1cZrCb-WRkB7J7-91" value="&lt;font style=&quot;font-size: 24px;&quot;&gt;*&lt;/font&gt;" style="text;html=1;align=center;verticalAlign=middle;resizable=0;points=[];autosize=1;strokeColor=none;fillColor=none;" parent="1" vertex="1">
          <mxGeometry x="575" y="440" width="30" height="40" as="geometry" />
        </mxCell>
        <mxCell id="Ewzypt1cZrCb-WRkB7J7-92" value="Register" style="text;html=1;align=center;verticalAlign=middle;resizable=0;points=[];autosize=1;strokeColor=none;fillColor=none;rotation=90;" parent="1" vertex="1">
          <mxGeometry x="545" y="481" width="70" height="30" as="geometry" />
        </mxCell>
        <mxCell id="Ewzypt1cZrCb-WRkB7J7-93" value="Teach" style="text;html=1;align=center;verticalAlign=middle;resizable=0;points=[];autosize=1;strokeColor=none;fillColor=none;" parent="1" vertex="1">
          <mxGeometry x="290" y="550" width="60" height="30" as="geometry" />
        </mxCell>
        <mxCell id="Ewzypt1cZrCb-WRkB7J7-94" value="&lt;font style=&quot;font-size: 18px;&quot;&gt;*&lt;/font&gt;" style="text;html=1;align=center;verticalAlign=middle;resizable=0;points=[];autosize=1;strokeColor=none;fillColor=none;" parent="1" vertex="1">
          <mxGeometry x="340" y="550" width="30" height="40" as="geometry" />
        </mxCell>
        <mxCell id="Ewzypt1cZrCb-WRkB7J7-95" value="Has" style="text;html=1;align=center;verticalAlign=middle;resizable=0;points=[];autosize=1;strokeColor=none;fillColor=none;rotation=0;" parent="1" vertex="1">
          <mxGeometry x="575" y="620" width="40" height="30" as="geometry" />
        </mxCell>
        <mxCell id="Ewzypt1cZrCb-WRkB7J7-96" value="&lt;font style=&quot;font-size: 24px;&quot;&gt;*&lt;/font&gt;" style="text;html=1;align=center;verticalAlign=middle;resizable=0;points=[];autosize=1;strokeColor=none;fillColor=none;" parent="1" vertex="1">
          <mxGeometry x="600" y="600" width="30" height="40" as="geometry" />
        </mxCell>
        <mxCell id="Ewzypt1cZrCb-WRkB7J7-97" value="Has" style="text;html=1;align=center;verticalAlign=middle;resizable=0;points=[];autosize=1;strokeColor=none;fillColor=none;rotation=-1;" parent="1" vertex="1">
          <mxGeometry x="159" y="730" width="40" height="30" as="geometry" />
        </mxCell>
        <mxCell id="Ewzypt1cZrCb-WRkB7J7-98" value="&lt;font style=&quot;font-size: 18px;&quot;&gt;*&lt;/font&gt;" style="text;html=1;align=center;verticalAlign=middle;resizable=0;points=[];autosize=1;strokeColor=none;fillColor=none;" parent="1" vertex="1">
          <mxGeometry x="225" y="730" width="30" height="40" as="geometry" />
        </mxCell>
        <mxCell id="Ewzypt1cZrCb-WRkB7J7-100" value="Has" style="text;html=1;align=center;verticalAlign=middle;resizable=0;points=[];autosize=1;strokeColor=none;fillColor=none;rotation=90;" parent="1" vertex="1">
          <mxGeometry x="310" y="634" width="40" height="30" as="geometry" />
        </mxCell>
        <mxCell id="Ewzypt1cZrCb-WRkB7J7-101" value="&lt;font style=&quot;font-size: 18px;&quot;&gt;*&lt;/font&gt;" style="text;html=1;align=center;verticalAlign=middle;resizable=0;points=[];autosize=1;strokeColor=none;fillColor=none;" parent="1" vertex="1">
          <mxGeometry x="310" y="664" width="30" height="40" as="geometry" />
        </mxCell>
        <mxCell id="Ewzypt1cZrCb-WRkB7J7-102" value="&lt;font style=&quot;font-size: 18px;&quot;&gt;*&lt;/font&gt;" style="text;html=1;align=center;verticalAlign=middle;resizable=0;points=[];autosize=1;strokeColor=none;fillColor=none;" parent="1" vertex="1">
          <mxGeometry x="710" y="837" width="30" height="40" as="geometry" />
        </mxCell>
        <mxCell id="Ewzypt1cZrCb-WRkB7J7-103" value="Has" style="text;html=1;align=center;verticalAlign=middle;resizable=0;points=[];autosize=1;strokeColor=none;fillColor=none;rotation=90;" parent="1" vertex="1">
          <mxGeometry x="710" y="810" width="40" height="30" as="geometry" />
        </mxCell>
        <mxCell id="Ewzypt1cZrCb-WRkB7J7-104" value="Has" style="text;html=1;align=center;verticalAlign=middle;resizable=0;points=[];autosize=1;strokeColor=none;fillColor=none;" parent="1" vertex="1">
          <mxGeometry x="482" y="850" width="40" height="30" as="geometry" />
        </mxCell>
        <mxCell id="Ewzypt1cZrCb-WRkB7J7-105" value="Has" style="text;html=1;align=center;verticalAlign=middle;resizable=0;points=[];autosize=1;strokeColor=none;fillColor=none;rotation=-225;" parent="1" vertex="1">
          <mxGeometry x="780" y="200" width="40" height="30" as="geometry" />
        </mxCell>
        <mxCell id="Ewzypt1cZrCb-WRkB7J7-106" value="Add" style="text;html=1;align=center;verticalAlign=middle;resizable=0;points=[];autosize=1;strokeColor=none;fillColor=none;" parent="1" vertex="1">
          <mxGeometry x="580" y="125" width="40" height="30" as="geometry" />
        </mxCell>
        <mxCell id="Ewzypt1cZrCb-WRkB7J7-107" value="&lt;font style=&quot;font-size: 18px;&quot;&gt;*&lt;/font&gt;" style="text;html=1;align=center;verticalAlign=middle;resizable=0;points=[];autosize=1;strokeColor=none;fillColor=none;" parent="1" vertex="1">
          <mxGeometry x="616" y="120" width="30" height="40" as="geometry" />
        </mxCell>
        <mxCell id="Ewzypt1cZrCb-WRkB7J7-108" value="&lt;font style=&quot;font-size: 24px;&quot;&gt;*&lt;/font&gt;" style="text;html=1;align=center;verticalAlign=middle;resizable=0;points=[];autosize=1;strokeColor=none;fillColor=none;" parent="1" vertex="1">
          <mxGeometry x="432" y="320" width="30" height="40" as="geometry" />
        </mxCell>
        <mxCell id="Ewzypt1cZrCb-WRkB7J7-110" value="Use" style="text;html=1;align=center;verticalAlign=middle;resizable=0;points=[];autosize=1;strokeColor=none;fillColor=none;rotation=90;" parent="1" vertex="1">
          <mxGeometry x="427" y="298" width="40" height="30" as="geometry" />
        </mxCell>
        <mxCell id="Ewzypt1cZrCb-WRkB7J7-111" value="&lt;font style=&quot;font-size: 18px;&quot;&gt;*&lt;/font&gt;" style="text;html=1;align=center;verticalAlign=middle;resizable=0;points=[];autosize=1;strokeColor=none;fillColor=none;" parent="1" vertex="1">
          <mxGeometry x="217" y="76" width="30" height="40" as="geometry" />
        </mxCell>
        <mxCell id="Ewzypt1cZrCb-WRkB7J7-117" value="" style="endArrow=open;html=1;endSize=12;startArrow=diamondThin;startSize=14;startFill=0;edgeStyle=orthogonalEdgeStyle;align=left;verticalAlign=bottom;rounded=0;exitX=0;exitY=0.409;exitDx=0;exitDy=0;exitPerimeter=0;" parent="1" source="Ewzypt1cZrCb-WRkB7J7-45" edge="1">
          <mxGeometry x="-1" y="3" relative="1" as="geometry">
            <mxPoint x="389" y="107.762" as="sourcePoint" />
            <mxPoint x="220" y="107" as="targetPoint" />
          </mxGeometry>
        </mxCell>
        <mxCell id="Ewzypt1cZrCb-WRkB7J7-118" value="&lt;font style=&quot;font-size: 36px;&quot;&gt;&lt;b&gt;&lt;u&gt;Final Class Diagram&lt;/u&gt;&lt;/b&gt;&lt;/font&gt;" style="text;html=1;align=center;verticalAlign=middle;resizable=0;points=[];autosize=1;strokeColor=none;fillColor=none;" parent="1" vertex="1">
          <mxGeometry x="284" width="370" height="60" as="geometry" />
        </mxCell>
        <mxCell id="Ewzypt1cZrCb-WRkB7J7-124" value="" style="endArrow=open;html=1;endSize=12;startArrow=diamondThin;startSize=14;startFill=1;edgeStyle=orthogonalEdgeStyle;align=left;verticalAlign=bottom;rounded=0;exitX=0.263;exitY=-0.003;exitDx=0;exitDy=0;exitPerimeter=0;entryX=0.001;entryY=0.854;entryDx=0;entryDy=0;entryPerimeter=0;" parent="1" source="Ewzypt1cZrCb-WRkB7J7-20" target="Ewzypt1cZrCb-WRkB7J7-13" edge="1">
          <mxGeometry x="-1" y="3" relative="1" as="geometry">
            <mxPoint x="290" y="640" as="sourcePoint" />
            <mxPoint x="450" y="640" as="targetPoint" />
          </mxGeometry>
        </mxCell>
      </root>
    </mxGraphModel>
  </diagram>
</mxfile>
